<svg width="310" height="198" fill="none" xmlns="http://www.w3.org/2000/svg"><g clip-path="url('#clip0')"><path d="M277.5 0h-245C14.827 0 .5 14.327.5 32v134c0 17.673 14.327 32 32 32h245c17.673 0 32-14.327 32-32V32c0-17.673-14.327-32-32-32Z" fill="#F4263E"/><g filter="url('#filter0_d')"><path d="M190.93 32.906h-80.144c-8.047 0-14.571 6.524-14.571 14.572V154.64c0 8.048 6.524 14.572 14.571 14.572h80.144c8.047 0 14.571-6.524 14.571-14.572V47.478c0-8.048-6.524-14.572-14.571-14.572Z" fill="#fff" fill-opacity=".01"/></g><path d="M191.83 31.373h-81.946c-8.229 0-14.9 6.67-14.9 14.9v109.574c0 8.228 6.671 14.899 14.9 14.899h81.946c8.229 0 14.899-6.671 14.899-14.899V46.272c0-8.228-6.67-14.899-14.899-14.899Z" fill="#fff"/><path opacity=".6" d="M160.801 110.996h-52.247a4.19 4.19 0 1 0 0 8.381h52.247a4.19 4.19 0 0 0 0-8.381Z" fill="#62668A"/><path opacity=".3" d="M193.159 126.826h-84.605a4.19 4.19 0 1 0 0 8.381h84.605a4.19 4.19 0 1 0 0-8.381ZM179.099 142.815h-70.545a4.191 4.191 0 0 0 0 8.381h70.545a4.19 4.19 0 0 0 0-8.381Z" fill="#BEBFCC"/><g filter="url('#filter1_d')"><path d="M186.559 43.927h-71.403a8.941 8.941 0 0 0-8.941 8.941v35.813a8.941 8.941 0 0 0 8.941 8.941h71.403a8.941 8.941 0 0 0 8.941-8.941V52.868a8.941 8.941 0 0 0-8.941-8.941Z" fill="#F4263E" fill-opacity=".01"/></g><path d="M188.038 42.815h-74.363a9.312 9.312 0 0 0-9.312 9.312v37.296a9.312 9.312 0 0 0 9.312 9.313h74.363a9.312 9.312 0 0 0 9.312-9.313V52.126a9.312 9.312 0 0 0-9.312-9.311Z" fill="#F4263E"/><g filter="url('#filter2_d')"><path d="M99.992 80c14.339 0 25.964-11.625 25.964-25.964 0-14.34-11.625-25.965-25.964-25.965-14.34 0-25.965 11.625-25.965 25.965S85.652 80 99.992 80Z" fill="#F4263E" fill-opacity=".01"/></g><path d="M99.992 82.816c15.896 0 28.781-12.886 28.781-28.78 0-15.896-12.885-28.782-28.78-28.782-15.896 0-28.782 12.886-28.782 28.781s12.886 28.781 28.781 28.781Z" fill="#F4263E"/><g filter="url('#filter3_d')"><path d="M114.676 45.284a7.818 7.818 0 0 0-12.525-2.032l-1.544 1.544a.87.87 0 0 1-1.228 0l-1.545-1.544a7.82 7.82 0 0 0-11.06 11.06l11.619 12.12a2.217 2.217 0 0 0 3.199 0l11.618-12.12a7.81 7.81 0 0 0 1.466-9.028Z" fill="#fff" fill-opacity=".01"/></g><path d="M116.889 43.963a8.998 8.998 0 0 0-10.817-4.543 8.99 8.99 0 0 0-3.598 2.204l-1.777 1.777a1.001 1.001 0 0 1-1.413 0l-1.78-1.777a9 9 0 0 0-12.727 12.728l13.371 13.95a2.551 2.551 0 0 0 3.682 0l13.372-13.95a8.994 8.994 0 0 0 1.687-10.39Z" fill="#fff"/><g filter="url('#filter4_d')"><path d="M144.391 58.403c-2.005-1.18-4.532.266-4.532 2.593v19.558c0 2.326 2.527 3.772 4.532 2.592l16.625-9.779c1.977-1.163 1.977-4.021 0-5.184l-16.625-9.78Z" fill="#fff" fill-opacity=".01"/></g><path d="M144.037 57.75c-2.111-1.241-4.771.28-4.771 2.73v20.59c0 2.448 2.66 3.97 4.771 2.728l17.501-10.294c2.081-1.225 2.081-4.234 0-5.458L144.037 57.75Z" fill="#fff"/><g filter="url('#filter5_d')"><path d="M241.244 70.435h-45.162A8.566 8.566 0 0 0 187.516 79v67.432a8.567 8.567 0 0 0 8.566 8.567h45.162a8.568 8.568 0 0 0 8.567-8.567V79.001a8.567 8.567 0 0 0-8.567-8.566Z" fill="#fff" fill-opacity=".01"/></g><path d="M241.979 69.058h-46.633a8.846 8.846 0 0 0-8.846 8.845v69.629a8.845 8.845 0 0 0 8.846 8.845h46.633a8.845 8.845 0 0 0 8.845-8.845V77.903a8.845 8.845 0 0 0-8.845-8.845Z" fill="#fff"/><g filter="url('#filter6_d')"><path d="M194.639 138.983a2.862 2.862 0 1 0 0-5.724 2.862 2.862 0 0 0 0 5.724Z" fill="#F4263E" fill-opacity=".01"/></g><path d="M194.639 139.401a3.28 3.28 0 1 0-.001-6.561 3.28 3.28 0 0 0 .001 6.561Z" fill="#F4263E"/><path d="M229.352 80.343h-23.801a2.211 2.211 0 0 0 0 4.423h23.801a2.212 2.212 0 1 0 0-4.423ZM235.06 142.791h-41.489a2.211 2.211 0 1 0 0 4.423h41.489a2.211 2.211 0 0 0 0-4.423Z" fill="#E7E8F1"/><g filter="url('#filter7_d')"><path d="M238.222 92.653h-39.12a6.278 6.278 0 0 0-6.278 6.278v23.255a6.278 6.278 0 0 0 6.278 6.278h39.12a6.278 6.278 0 0 0 6.278-6.278V98.931a6.278 6.278 0 0 0-6.278-6.278Z" fill="#F4263E" fill-opacity=".01"/></g><path d="M239.333 91.637h-41.339a6.635 6.635 0 0 0-6.635 6.634v24.574a6.635 6.635 0 0 0 6.635 6.634h41.339a6.634 6.634 0 0 0 6.634-6.634V98.271a6.634 6.634 0 0 0-6.634-6.634Z" fill="#F4263E"/><g filter="url('#filter8_d')"><path d="M226.055 108.264a2.297 2.297 0 0 0-.776-.906 2.455 2.455 0 0 0-1.145-.421 2.335 2.335 0 0 0-1.16.294 2.194 2.194 0 0 0-.839.819l-.011.017-3.734 6.076a.547.547 0 0 1-.177.178.595.595 0 0 1-.501.058.575.575 0 0 1-.219-.131l-3.851-3.713a2.1 2.1 0 0 0-.874-.415 2.171 2.171 0 0 0-.901-.003 2.12 2.12 0 0 0-.817.361c-.241.176-.438.4-.578.657l-.013.022-5.558 9.028a.525.525 0 0 0 .207.742.587.587 0 0 0 .285.073h26.539a.58.58 0 0 0 .484-.258.513.513 0 0 0 .021-.528l-6.382-11.95Z" fill="#fff" fill-opacity=".01"/></g><path d="M226.334 107.747a2.483 2.483 0 0 0-1.993-1.448 2.337 2.337 0 0 0-2.074 1.214l-.011.019-3.874 6.627a.592.592 0 0 1-.437.288.6.6 0 0 1-.493-.173l-3.996-4.05a.453.453 0 0 0-.062-.054 2.138 2.138 0 0 0-2.626-.008c-.25.192-.455.436-.6.716l-.014.024-5.765 9.848a.592.592 0 0 0 .51.888h27.531a.59.59 0 0 0 .524-.857l-6.62-13.034Z" fill="#fff"/><g filter="url('#filter9_d')"><path d="M208.616 106a2.98 2.98 0 0 0 0-5.958 2.978 2.978 0 1 0 0 5.958Z" fill="#FFCD1D" fill-opacity=".01"/></g><path d="M208.617 106.564a3.543 3.543 0 1 0-.002-7.086 3.543 3.543 0 0 0 .002 7.086Z" fill="#FFCD1D"/><g filter="url('#filter10_d')"><path d="M195.692 86.363a3.81 3.81 0 1 0 0-7.619 3.81 3.81 0 0 0 0 7.62Z" fill="#F4263E" fill-opacity=".01"/></g><path d="M195.691 86.887a4.333 4.333 0 1 0 0-8.665 4.333 4.333 0 0 0 0 8.665Z" fill="#F4263E"/></g><defs><filter id="filter0_d" x="76.215" y="17.906" width="149.286" height="176.306" filterUnits="userSpaceOnUse" color-interpolation-filters="sRGB"><feFlood flood-opacity="0" result="BackgroundImageFix"/><feColorMatrix in="SourceAlpha" values="0 0 0 0 0 0 0 0 0 0 0 0 0 0 0 0 0 0 127 0"/><feOffset dy="5"/><feGaussianBlur stdDeviation="10"/><feColorMatrix values="0 0 0 0 0.01625 0 0 0 0 0.0397 0 0 0 0 0.1 0 0 0 0.25 0"/><feBlend in2="BackgroundImageFix" result="effect1_dropShadow"/><feBlend in="SourceGraphic" in2="effect1_dropShadow" result="shape"/></filter><filter id="filter1_d" x="101.215" y="41.927" width="99.286" height="63.695" filterUnits="userSpaceOnUse" color-interpolation-filters="sRGB"><feFlood flood-opacity="0" result="BackgroundImageFix"/><feColorMatrix in="SourceAlpha" values="0 0 0 0 0 0 0 0 0 0 0 0 0 0 0 0 0 0 127 0"/><feOffset dy="3"/><feGaussianBlur stdDeviation="2.5"/><feColorMatrix values="0 0 0 0 0.956863 0 0 0 0 0.14902 0 0 0 0 0.243137 0 0 0 0.4 0"/><feBlend in2="BackgroundImageFix" result="effect1_dropShadow"/><feBlend in="SourceGraphic" in2="effect1_dropShadow" result="shape"/></filter><filter id="filter2_d" x="62.027" y="21.071" width="75.929" height="75.929" filterUnits="userSpaceOnUse" color-interpolation-filters="sRGB"><feFlood flood-opacity="0" result="BackgroundImageFix"/><feColorMatrix in="SourceAlpha" values="0 0 0 0 0 0 0 0 0 0 0 0 0 0 0 0 0 0 127 0"/><feOffset dy="5"/><feGaussianBlur stdDeviation="6"/><feColorMatrix values="0 0 0 0 0.00638889 0 0 0 0 0.0305 0 0 0 0 0.0666667 0 0 0 0.15 0"/><feBlend in2="BackgroundImageFix" result="effect1_dropShadow"/><feBlend in="SourceGraphic" in2="effect1_dropShadow" result="shape"/></filter><filter id="filter3_d" x="74.484" y="34.158" width="51.018" height="46.156" filterUnits="userSpaceOnUse" color-interpolation-filters="sRGB"><feFlood flood-opacity="0" result="BackgroundImageFix"/><feColorMatrix in="SourceAlpha" values="0 0 0 0 0 0 0 0 0 0 0 0 0 0 0 0 0 0 127 0"/><feOffset dy="3.2"/><feGaussianBlur stdDeviation="5"/><feColorMatrix values="0 0 0 0 0.121042 0 0 0 0 0.143938 0 0 0 0 0.35 0 0 0 0.2 0"/><feBlend in2="BackgroundImageFix" result="effect1_dropShadow"/><feBlend in="SourceGraphic" in2="effect1_dropShadow" result="shape"/></filter><filter id="filter4_d" x="124.859" y="46.983" width="52.639" height="55.583" filterUnits="userSpaceOnUse" color-interpolation-filters="sRGB"><feFlood flood-opacity="0" result="BackgroundImageFix"/><feColorMatrix in="SourceAlpha" values="0 0 0 0 0 0 0 0 0 0 0 0 0 0 0 0 0 0 127 0"/><feOffset dy="4"/><feGaussianBlur stdDeviation="7.5"/><feColorMatrix values="0 0 0 0 0.391667 0 0 0 0 0.0195833 0 0 0 0 0.0643893 0 0 0 0.2 0"/><feBlend in2="BackgroundImageFix" result="effect1_dropShadow"/><feBlend in="SourceGraphic" in2="effect1_dropShadow" result="shape"/></filter><filter id="filter5_d" x="159.516" y="50.435" width="118.295" height="140.565" filterUnits="userSpaceOnUse" color-interpolation-filters="sRGB"><feFlood flood-opacity="0" result="BackgroundImageFix"/><feColorMatrix in="SourceAlpha" values="0 0 0 0 0 0 0 0 0 0 0 0 0 0 0 0 0 0 127 0"/><feOffset dy="8"/><feGaussianBlur stdDeviation="14"/><feColorMatrix values="0 0 0 0 0.0602083 0 0 0 0 0.206125 0 0 0 0 0.425 0 0 0 0.25 0"/><feBlend in2="BackgroundImageFix" result="effect1_dropShadow"/><feBlend in="SourceGraphic" in2="effect1_dropShadow" result="shape"/></filter><filter id="filter6_d" x="187.777" y="131.259" width="13.724" height="13.724" filterUnits="userSpaceOnUse" color-interpolation-filters="sRGB"><feFlood flood-opacity="0" result="BackgroundImageFix"/><feColorMatrix in="SourceAlpha" values="0 0 0 0 0 0 0 0 0 0 0 0 0 0 0 0 0 0 127 0"/><feOffset dy="2"/><feGaussianBlur stdDeviation="2"/><feColorMatrix values="0 0 0 0 0.956863 0 0 0 0 0.14902 0 0 0 0 0.243137 0 0 0 0.19 0"/><feBlend in2="BackgroundImageFix" result="effect1_dropShadow"/><feBlend in="SourceGraphic" in2="effect1_dropShadow" result="shape"/></filter><filter id="filter7_d" x="187.824" y="90.653" width="61.676" height="45.81" filterUnits="userSpaceOnUse" color-interpolation-filters="sRGB"><feFlood flood-opacity="0" result="BackgroundImageFix"/><feColorMatrix in="SourceAlpha" values="0 0 0 0 0 0 0 0 0 0 0 0 0 0 0 0 0 0 127 0"/><feOffset dy="3"/><feGaussianBlur stdDeviation="2.5"/><feColorMatrix values="0 0 0 0 0.956863 0 0 0 0 0.14902 0 0 0 0 0.243137 0 0 0 0.22 0"/><feBlend in2="BackgroundImageFix" result="effect1_dropShadow"/><feBlend in="SourceGraphic" in2="effect1_dropShadow" result="shape"/></filter><filter id="filter8_d" x="199.824" y="104.937" width="37.675" height="24.063" filterUnits="userSpaceOnUse" color-interpolation-filters="sRGB"><feFlood flood-opacity="0" result="BackgroundImageFix"/><feColorMatrix in="SourceAlpha" values="0 0 0 0 0 0 0 0 0 0 0 0 0 0 0 0 0 0 127 0"/><feOffset dy="3"/><feGaussianBlur stdDeviation="2.5"/><feColorMatrix values="0 0 0 0 0.0238889 0 0 0 0 0.0348334 0 0 0 0 0.133333 0 0 0 0.1 0"/><feBlend in2="BackgroundImageFix" result="effect1_dropShadow"/><feBlend in="SourceGraphic" in2="effect1_dropShadow" result="shape"/></filter><filter id="filter9_d" x="201.637" y="98.042" width="13.957" height="13.958" filterUnits="userSpaceOnUse" color-interpolation-filters="sRGB"><feFlood flood-opacity="0" result="BackgroundImageFix"/><feColorMatrix in="SourceAlpha" values="0 0 0 0 0 0 0 0 0 0 0 0 0 0 0 0 0 0 127 0"/><feOffset dy="2"/><feGaussianBlur stdDeviation="2"/><feColorMatrix values="0 0 0 0 0.0324653 0 0 0 0 0.0433854 0 0 0 0 0.141667 0 0 0 0.32 0"/><feBlend in2="BackgroundImageFix" result="effect1_dropShadow"/><feBlend in="SourceGraphic" in2="effect1_dropShadow" result="shape"/></filter><filter id="filter10_d" x="187.883" y="76.745" width="15.618" height="15.618" filterUnits="userSpaceOnUse" color-interpolation-filters="sRGB"><feFlood flood-opacity="0" result="BackgroundImageFix"/><feColorMatrix in="SourceAlpha" values="0 0 0 0 0 0 0 0 0 0 0 0 0 0 0 0 0 0 127 0"/><feOffset dy="2"/><feGaussianBlur stdDeviation="2"/><feColorMatrix values="0 0 0 0 0.956863 0 0 0 0 0.14902 0 0 0 0 0.243137 0 0 0 0.17 0"/><feBlend in2="BackgroundImageFix" result="effect1_dropShadow"/><feBlend in="SourceGraphic" in2="effect1_dropShadow" result="shape"/></filter><clipPath id="clip0"><path fill="#fff" transform="translate(.5)" d="M0 0h309v198H0z"/></clipPath></defs></svg>