<svg width="310" height="198" fill="none" xmlns="http://www.w3.org/2000/svg"><g clip-path="url('#clip0')"><path d="M277.5 0h-245C14.827 0 .5 14.327.5 32v134c0 17.673 14.327 32 32 32h245c17.673 0 32-14.327 32-32V32c0-17.673-14.327-32-32-32Z" fill="#1B76FF"/><g filter="url('#filter0_d')"><path d="M204.647 38.162h-106.5c-10.055 0-18.206 8.151-18.206 18.206v93.426c0 10.055 8.151 18.206 18.206 18.206h106.5c10.055 0 18.206-8.151 18.206-18.206V56.368c0-10.055-8.151-18.206-18.206-18.206Z" fill="#fff" fill-opacity=".01"/></g><path d="M206.419 35.999H96.371c-10.39 0-18.812 8.423-18.812 18.813v96.538c0 10.39 8.422 18.813 18.812 18.813H206.42c10.39 0 18.813-8.423 18.813-18.813V54.812c0-10.39-8.423-18.813-18.813-18.813Z" fill="#fff"/><g filter="url('#filter1_d')"><path d="M93.059 149.267c25.17 0 26.468-24.976 45.345-26.76 18.878-1.784 25.171 14.944 45.192 14.944 20.022 0 18.278-27.557 30.597-27.557" stroke="#1B76FF" stroke-opacity=".01" stroke-width="4" stroke-linecap="round"/></g><path d="M93.059 149.268c25.17 0 26.468-24.976 45.345-26.76 18.878-1.784 25.171 14.944 45.192 14.944 20.022 0 18.278-27.557 30.597-27.557" stroke="#1B76FF" stroke-width="4.801" stroke-linecap="round"/><g filter="url('#filter2_d')"><path d="M93.059 149.267c25.146 0 21.428-15.878 46.874-7.939s21.971-15.571 36.83-17.949c14.859-2.379 26.544 1.698 40.26 0" stroke="#1B76FF" stroke-opacity=".01" stroke-width="4" stroke-linecap="round"/></g><path d="M93.059 149.267c25.146 0 21.428-15.878 46.874-7.939s21.971-15.571 36.83-17.949c14.859-2.379 26.544 1.698 40.26 0" stroke="#1B76FF" stroke-width="4.801" stroke-linecap="round"/><g filter="url('#filter3_d')"><path d="M97.421 87.361a19.611 19.611 0 0 1 31.776-20.26" stroke="#782CE4" stroke-opacity=".01" stroke-width="7" stroke-linecap="round"/></g><path d="M97.421 87.361a19.611 19.611 0 0 1 31.776-20.26" stroke="#782CE4" stroke-width="8.04" stroke-linecap="round"/><g filter="url('#filter4_d')"><path d="M129.188 67.094a19.59 19.59 0 0 1 4.923 6.666 19.608 19.608 0 0 1 1.733 8.104" stroke="#FFCD1D" stroke-opacity=".01" stroke-width="7" stroke-linecap="round"/></g><path d="M129.188 67.094a19.59 19.59 0 0 1 4.923 6.666 19.608 19.608 0 0 1 1.733 8.104" stroke="#FFCD1D" stroke-width="8.04" stroke-linecap="round"/><g filter="url('#filter5_d')"><path d="M135.844 81.816a19.613 19.613 0 0 1-16.811 19.41A19.61 19.61 0 0 1 97.422 87.36" stroke="#1B76FF" stroke-opacity=".01" stroke-width="7" stroke-linecap="round"/></g><path d="M135.844 81.816a19.613 19.613 0 0 1-16.811 19.41A19.61 19.61 0 0 1 97.422 87.36" stroke="#1B76FF" stroke-width="8.04" stroke-linecap="round"/><g filter="url('#filter6_d')"><path d="M158.747 58h-3.178a3.07 3.07 0 0 0-3.069 3.07v3.177a3.07 3.07 0 0 0 3.069 3.07h3.178a3.07 3.07 0 0 0 3.069-3.07v-3.178A3.07 3.07 0 0 0 158.747 58Z" fill="#FFCD1D" fill-opacity=".01"/></g><path d="M159.005 56.895h-3.716a3.59 3.59 0 0 0-3.59 3.589V64.2a3.59 3.59 0 0 0 3.59 3.59h3.716a3.59 3.59 0 0 0 3.589-3.59v-3.716a3.59 3.59 0 0 0-3.589-3.59Z" fill="#FFCD1D"/><g filter="url('#filter7_d')"><path d="M158.337 76h-2.969a2.868 2.868 0 0 0-2.868 2.868v2.969a2.868 2.868 0 0 0 2.868 2.868h2.969a2.868 2.868 0 0 0 2.868-2.868v-2.969A2.868 2.868 0 0 0 158.337 76Z" fill="#782CE4" fill-opacity=".01"/></g><path d="M159.005 74.326h-3.716a3.59 3.59 0 0 0-3.59 3.59v3.716a3.59 3.59 0 0 0 3.59 3.59h3.716a3.59 3.59 0 0 0 3.589-3.59v-3.716a3.59 3.59 0 0 0-3.589-3.59Z" fill="#782CE4"/><g filter="url('#filter8_d')"><path d="M158.781 93h-3.27a3.159 3.159 0 0 0-3.159 3.159v3.27a3.158 3.158 0 0 0 3.159 3.159h3.27a3.158 3.158 0 0 0 3.159-3.159v-3.27A3.159 3.159 0 0 0 158.781 93Z" fill="#1B76FF" fill-opacity=".01"/></g><path d="M159.005 91.758h-3.716a3.59 3.59 0 0 0-3.59 3.59v3.715a3.59 3.59 0 0 0 3.59 3.59h3.716a3.59 3.59 0 0 0 3.589-3.59v-3.716a3.59 3.59 0 0 0-3.589-3.59Z" fill="#1B76FF"/><path opacity=".5" d="M204.13 60.3h-34.728a2.043 2.043 0 0 0 0 4.085h34.728a2.043 2.043 0 0 0 0-4.085ZM195.018 77.731h-25.616a2.043 2.043 0 0 0 0 4.086h25.616a2.042 2.042 0 0 0 0-4.086ZM200.835 95.163h-31.433a2.043 2.043 0 0 0 0 4.086h31.433a2.042 2.042 0 0 0 0-4.086Z" fill="#BEBFCC"/><g filter="url('#filter9_d')"><path d="M239.735 24.667h-37.006c-6.497 0-11.764 5.267-11.764 11.764v34.734c0 6.497 5.267 11.764 11.764 11.764h37.006c6.497 0 11.764-5.267 11.764-11.764V36.43c0-6.497-5.267-11.764-11.764-11.764Z" fill="#fff" fill-opacity=".01"/></g><path d="M241.534 21.838h-40.6c-7.128 0-12.907 5.779-12.907 12.907v38.107c0 7.128 5.779 12.907 12.907 12.907h40.6c7.128 0 12.907-5.779 12.907-12.907V34.745c0-7.128-5.779-12.907-12.907-12.907Z" fill="#fff"/><g filter="url('#filter10_d')"><path d="M203.502 64.566c0-1.202-.866-2.175-1.935-2.175-1.068 0-1.934.973-1.934 2.175v7.259c0 1.201.866 2.175 1.934 2.175 1.069 0 1.935-.974 1.935-2.175v-7.26Z" fill="#1B76FF" fill-opacity=".01"/></g><path d="M204.022 64.092a2.458 2.458 0 1 0-4.917 0V72.3a2.459 2.459 0 0 0 4.917 0v-8.207Z" fill="#1B76FF"/><g filter="url('#filter11_d')"><path d="M213.502 57.542c0-1.256-.941-2.274-2.101-2.274-1.16 0-2.1 1.018-2.1 2.274v14.183c0 1.257.94 2.275 2.1 2.275 1.16 0 2.101-1.019 2.101-2.275V57.542Z" fill="#1B76FF" fill-opacity=".01"/></g><path d="M213.858 56.97a2.458 2.458 0 1 0-4.917 0v15.328a2.459 2.459 0 0 0 4.917 0V56.97Z" fill="#1B76FF"/><g filter="url('#filter12_d')"><path d="M222.502 50.281c0-1.283-.567-2.323-1.267-2.323-.699 0-1.266 1.04-1.266 2.323v21.395c0 1.284.567 2.324 1.266 2.324.7 0 1.267-1.04 1.267-2.324V50.281Z" fill="#1B76FF" fill-opacity=".01"/></g><path d="M223.69 49.66a2.458 2.458 0 1 0-4.917 0v22.639a2.459 2.459 0 0 0 4.917 0v-22.64Z" fill="#1B76FF"/><g filter="url('#filter13_d')"><path d="M232.502 43.167c0-1.299-.642-2.352-1.433-2.352s-1.432 1.053-1.432 2.352v28.482c0 1.299.641 2.351 1.432 2.351.791 0 1.433-1.052 1.433-2.35V43.166Z" fill="#1B76FF" fill-opacity=".01"/></g><path d="M233.526 42.516a2.458 2.458 0 1 0-4.917 0v29.782a2.459 2.459 0 0 0 4.917 0V42.516Z" fill="#1B76FF"/><g filter="url('#filter14_d')"><path d="M242.502 35.8c0-1.31-.716-2.37-1.599-2.37s-1.598 1.06-1.598 2.37v35.83c0 1.309.715 2.37 1.598 2.37.883 0 1.599-1.061 1.599-2.37V35.8Z" fill="#1B76FF" fill-opacity=".01"/></g><path d="M243.358 35.131a2.458 2.458 0 1 0-4.917 0v37.167a2.459 2.459 0 0 0 4.917 0V35.131Z" fill="#1B76FF"/></g><defs><filter id="filter0_d" x="54.941" y="15.162" width="192.912" height="179.838" filterUnits="userSpaceOnUse" color-interpolation-filters="sRGB"><feFlood flood-opacity="0" result="BackgroundImageFix"/><feColorMatrix in="SourceAlpha" values="0 0 0 0 0 0 0 0 0 0 0 0 0 0 0 0 0 0 127 0"/><feOffset dy="2"/><feGaussianBlur stdDeviation="12.5"/><feColorMatrix values="0 0 0 0 0.121569 0 0 0 0 0.184314 0 0 0 0 0.34902 0 0 0 0.23 0"/><feBlend in2="BackgroundImageFix" result="effect1_dropShadow"/><feBlend in="SourceGraphic" in2="effect1_dropShadow" result="shape"/></filter><filter id="filter1_d" x="87.927" y="106.641" width="131.397" height="49.635" filterUnits="userSpaceOnUse" color-interpolation-filters="sRGB"><feFlood flood-opacity="0" result="BackgroundImageFix"/><feColorMatrix in="SourceAlpha" values="0 0 0 0 0 0 0 0 0 0 0 0 0 0 0 0 0 0 127 0"/><feOffset dy="1.879"/><feGaussianBlur stdDeviation="1.566"/><feColorMatrix values="0 0 0 0 0.104167 0 0 0 0 0.4625 0 0 0 0 1 0 0 0 0.21 0"/><feBlend in2="BackgroundImageFix" result="effect1_dropShadow"/><feBlend in="SourceGraphic" in2="effect1_dropShadow" result="shape"/></filter><filter id="filter2_d" x="87.927" y="118.734" width="134.227" height="36.917" filterUnits="userSpaceOnUse" color-interpolation-filters="sRGB"><feFlood flood-opacity="0" result="BackgroundImageFix"/><feColorMatrix in="SourceAlpha" values="0 0 0 0 0 0 0 0 0 0 0 0 0 0 0 0 0 0 127 0"/><feOffset dy="1.252"/><feGaussianBlur stdDeviation="1.566"/><feColorMatrix values="0 0 0 0 0.104167 0 0 0 0 0.4625 0 0 0 0 1 0 0 0 0.24 0"/><feBlend in2="BackgroundImageFix" result="effect1_dropShadow"/><feBlend in="SourceGraphic" in2="effect1_dropShadow" result="shape"/></filter><filter id="filter3_d" x="90.824" y="58.705" width="44.17" height="36.752" filterUnits="userSpaceOnUse" color-interpolation-filters="sRGB"><feFlood flood-opacity="0" result="BackgroundImageFix"/><feColorMatrix in="SourceAlpha" values="0 0 0 0 0 0 0 0 0 0 0 0 0 0 0 0 0 0 127 0"/><feOffset dy="2.297"/><feGaussianBlur stdDeviation="1.149"/><feColorMatrix values="0 0 0 0 0.470588 0 0 0 0 0.172549 0 0 0 0 0.894118 0 0 0 0.24 0"/><feBlend in2="BackgroundImageFix" result="effect1_dropShadow"/><feBlend in="SourceGraphic" in2="effect1_dropShadow" result="shape"/></filter><filter id="filter4_d" x="121.667" y="60.722" width="21.697" height="29.811" filterUnits="userSpaceOnUse" color-interpolation-filters="sRGB"><feFlood flood-opacity="0" result="BackgroundImageFix"/><feColorMatrix in="SourceAlpha" values="0 0 0 0 0 0 0 0 0 0 0 0 0 0 0 0 0 0 127 0"/><feOffset dy="1.149"/><feGaussianBlur stdDeviation="2.01"/><feColorMatrix values="0 0 0 0 1 0 0 0 0 0.80475 0 0 0 0 0.1125 0 0 0 0.15 0"/><feBlend in2="BackgroundImageFix" result="effect1_dropShadow"/><feBlend in="SourceGraphic" in2="effect1_dropShadow" result="shape"/></filter><filter id="filter5_d" x="91.625" y="77.742" width="50.017" height="31.206" filterUnits="userSpaceOnUse" color-interpolation-filters="sRGB"><feFlood flood-opacity="0" result="BackgroundImageFix"/><feColorMatrix in="SourceAlpha" values="0 0 0 0 0 0 0 0 0 0 0 0 0 0 0 0 0 0 127 0"/><feOffset dy="1.723"/><feGaussianBlur stdDeviation="1.149"/><feColorMatrix values="0 0 0 0 0.104167 0 0 0 0 0.4625 0 0 0 0 1 0 0 0 0.22 0"/><feBlend in2="BackgroundImageFix" result="effect1_dropShadow"/><feBlend in="SourceGraphic" in2="effect1_dropShadow" result="shape"/></filter><filter id="filter6_d" x="149.628" y="57.128" width="15.059" height="15.059" filterUnits="userSpaceOnUse" color-interpolation-filters="sRGB"><feFlood flood-opacity="0" result="BackgroundImageFix"/><feColorMatrix in="SourceAlpha" values="0 0 0 0 0 0 0 0 0 0 0 0 0 0 0 0 0 0 127 0"/><feOffset dy="2"/><feGaussianBlur stdDeviation="1.436"/><feColorMatrix values="0 0 0 0 1 0 0 0 0 0.80475 0 0 0 0 0.1125 0 0 0 0.24 0"/><feBlend in2="BackgroundImageFix" result="effect1_dropShadow"/><feBlend in="SourceGraphic" in2="effect1_dropShadow" result="shape"/></filter><filter id="filter7_d" x="149.628" y="75.282" width="14.448" height="14.448" filterUnits="userSpaceOnUse" color-interpolation-filters="sRGB"><feFlood flood-opacity="0" result="BackgroundImageFix"/><feColorMatrix in="SourceAlpha" values="0 0 0 0 0 0 0 0 0 0 0 0 0 0 0 0 0 0 127 0"/><feOffset dy="2.154"/><feGaussianBlur stdDeviation="1.436"/><feColorMatrix values="0 0 0 0 0.470588 0 0 0 0 0.172549 0 0 0 0 0.894118 0 0 0 0.26 0"/><feBlend in2="BackgroundImageFix" result="effect1_dropShadow"/><feBlend in="SourceGraphic" in2="effect1_dropShadow" result="shape"/></filter><filter id="filter8_d" x="149.48" y="92.282" width="15.332" height="15.332" filterUnits="userSpaceOnUse" color-interpolation-filters="sRGB"><feFlood flood-opacity="0" result="BackgroundImageFix"/><feColorMatrix in="SourceAlpha" values="0 0 0 0 0 0 0 0 0 0 0 0 0 0 0 0 0 0 127 0"/><feOffset dy="2.154"/><feGaussianBlur stdDeviation="1.436"/><feColorMatrix values="0 0 0 0 0.104167 0 0 0 0 0.4625 0 0 0 0 1 0 0 0 0.18 0"/><feBlend in2="BackgroundImageFix" result="effect1_dropShadow"/><feBlend in="SourceGraphic" in2="effect1_dropShadow" result="shape"/></filter><filter id="filter9_d" x="170.965" y="7.667" width="100.534" height="98.262" filterUnits="userSpaceOnUse" color-interpolation-filters="sRGB"><feFlood flood-opacity="0" result="BackgroundImageFix"/><feColorMatrix in="SourceAlpha" values="0 0 0 0 0 0 0 0 0 0 0 0 0 0 0 0 0 0 127 0"/><feOffset dy="3"/><feGaussianBlur stdDeviation="10"/><feColorMatrix values="0 0 0 0 0.121042 0 0 0 0 0.143938 0 0 0 0 0.35 0 0 0 0.18 0"/><feBlend in2="BackgroundImageFix" result="effect1_dropShadow"/><feBlend in="SourceGraphic" in2="effect1_dropShadow" result="shape"/></filter><filter id="filter10_d" x="197.174" y="62.391" width="8.786" height="17.068" filterUnits="userSpaceOnUse" color-interpolation-filters="sRGB"><feFlood flood-opacity="0" result="BackgroundImageFix"/><feColorMatrix in="SourceAlpha" values="0 0 0 0 0 0 0 0 0 0 0 0 0 0 0 0 0 0 127 0"/><feOffset dy="3"/><feGaussianBlur stdDeviation="1.229"/><feColorMatrix values="0 0 0 0 0.104167 0 0 0 0 0.4625 0 0 0 0 1 0 0 0 0.15 0"/><feBlend in2="BackgroundImageFix" result="effect1_dropShadow"/><feBlend in="SourceGraphic" in2="effect1_dropShadow" result="shape"/></filter><filter id="filter11_d" x="206.842" y="55.268" width="9.118" height="24.191" filterUnits="userSpaceOnUse" color-interpolation-filters="sRGB"><feFlood flood-opacity="0" result="BackgroundImageFix"/><feColorMatrix in="SourceAlpha" values="0 0 0 0 0 0 0 0 0 0 0 0 0 0 0 0 0 0 127 0"/><feOffset dy="3"/><feGaussianBlur stdDeviation="1.229"/><feColorMatrix values="0 0 0 0 0.104167 0 0 0 0 0.4625 0 0 0 0 1 0 0 0 0.24 0"/><feBlend in2="BackgroundImageFix" result="effect1_dropShadow"/><feBlend in="SourceGraphic" in2="effect1_dropShadow" result="shape"/></filter><filter id="filter12_d" x="217.51" y="47.958" width="7.45" height="31.5" filterUnits="userSpaceOnUse" color-interpolation-filters="sRGB"><feFlood flood-opacity="0" result="BackgroundImageFix"/><feColorMatrix in="SourceAlpha" values="0 0 0 0 0 0 0 0 0 0 0 0 0 0 0 0 0 0 127 0"/><feOffset dy="3"/><feGaussianBlur stdDeviation="1.229"/><feColorMatrix values="0 0 0 0 0.104167 0 0 0 0 0.4625 0 0 0 0 1 0 0 0 0.15 0"/><feBlend in2="BackgroundImageFix" result="effect1_dropShadow"/><feBlend in="SourceGraphic" in2="effect1_dropShadow" result="shape"/></filter><filter id="filter13_d" x="227.178" y="40.815" width="7.782" height="38.643" filterUnits="userSpaceOnUse" color-interpolation-filters="sRGB"><feFlood flood-opacity="0" result="BackgroundImageFix"/><feColorMatrix in="SourceAlpha" values="0 0 0 0 0 0 0 0 0 0 0 0 0 0 0 0 0 0 127 0"/><feOffset dy="3"/><feGaussianBlur stdDeviation="1.229"/><feColorMatrix values="0 0 0 0 0.104167 0 0 0 0 0.4625 0 0 0 0 1 0 0 0 0.24 0"/><feBlend in2="BackgroundImageFix" result="effect1_dropShadow"/><feBlend in="SourceGraphic" in2="effect1_dropShadow" result="shape"/></filter><filter id="filter14_d" x="236.846" y="32.971" width="8.114" height="45.487" filterUnits="userSpaceOnUse" color-interpolation-filters="sRGB"><feFlood flood-opacity="0" result="BackgroundImageFix"/><feColorMatrix in="SourceAlpha" values="0 0 0 0 0 0 0 0 0 0 0 0 0 0 0 0 0 0 127 0"/><feOffset dy="2"/><feGaussianBlur stdDeviation="1.229"/><feColorMatrix values="0 0 0 0 0.104167 0 0 0 0 0.4625 0 0 0 0 1 0 0 0 0.15 0"/><feBlend in2="BackgroundImageFix" result="effect1_dropShadow"/><feBlend in="SourceGraphic" in2="effect1_dropShadow" result="shape"/></filter><clipPath id="clip0"><path fill="#fff" transform="translate(.5)" d="M0 0h309v198H0z"/></clipPath></defs></svg>