<svg width="62" height="62" fill="none" xmlns="http://www.w3.org/2000/svg"><path fill="#fff" d="M0 0h62v62H0z"/><path fill="url('#paint0_radial')" d="M0 0h62v62H0z"/><path d="M26.109 31A4.895 4.895 0 1 1 35.898 31a4.895 4.895 0 0 1-9.79.001Zm-2.647 0a7.54 7.54 0 1 0 15.08 0 7.54 7.54 0 0 0-15.08 0Zm13.617-7.839a1.762 1.762 0 1 0 1.763-1.761 1.762 1.762 0 0 0-1.763 1.761ZM25.07 42.953c-1.431-.065-2.21-.304-2.727-.505a4.564 4.564 0 0 1-1.689-1.099 4.53 4.53 0 0 1-1.098-1.688c-.202-.516-.44-1.295-.505-2.727-.071-1.547-.086-2.012-.086-5.934 0-3.921.016-4.385.086-5.934.065-1.431.305-2.208.505-2.727a4.564 4.564 0 0 1 1.098-1.689 4.527 4.527 0 0 1 1.69-1.098c.516-.202 1.294-.44 2.726-.505 1.548-.072 2.013-.086 5.933-.086s4.385.016 5.934.086c1.431.065 2.208.305 2.727.505a4.549 4.549 0 0 1 1.689 1.099 4.55 4.55 0 0 1 1.098 1.689c.202.516.44 1.295.505 2.726.071 1.55.086 2.013.086 5.935 0 3.921-.015 4.385-.086 5.934-.065 1.431-.305 2.21-.505 2.727a4.55 4.55 0 0 1-1.098 1.688 4.564 4.564 0 0 1-1.69 1.098c-.516.202-1.295.44-2.726.505-1.548.071-2.013.085-5.934.085-3.922 0-4.386-.014-5.933-.085Zm-.121-26.548c-1.564.071-2.632.319-3.565.682a7.208 7.208 0 0 0-2.6 1.694 7.17 7.17 0 0 0-1.695 2.6c-.363.934-.61 2.002-.682 3.565-.072 1.566-.089 2.066-.089 6.054 0 3.988.017 4.488.09 6.054.07 1.563.318 2.631.681 3.564a7.178 7.178 0 0 0 1.694 2.602 7.216 7.216 0 0 0 2.601 1.693c.935.363 2.001.611 3.565.682 1.566.072 2.066.09 6.054.09 3.987 0 4.488-.017 6.054-.09 1.563-.07 2.63-.319 3.564-.682a7.223 7.223 0 0 0 2.601-1.693 7.193 7.193 0 0 0 1.694-2.602c.363-.933.612-2 .682-3.564.071-1.567.088-2.066.088-6.054 0-3.988-.017-4.488-.088-6.054-.071-1.563-.32-2.631-.682-3.564a7.222 7.222 0 0 0-1.694-2.601 7.186 7.186 0 0 0-2.6-1.694c-.935-.363-2.002-.612-3.564-.682-1.566-.072-2.066-.09-6.054-.09-3.987 0-4.488.017-6.055.09" fill="#fff"/><defs><radialGradient id="paint0_radial" cx="0" cy="0" r="1" gradientUnits="userSpaceOnUse" gradientTransform="translate(4.013 60.642) scale(78.717)"><stop offset=".09" stop-color="#FA8F21"/><stop offset=".78" stop-color="#D82D7E"/></radialGradient></defs></svg>