<svg width="62" height="62" fill="none" xmlns="http://www.w3.org/2000/svg"><path fill="#fff" d="M0 0h62v62H0z"/><path fill="#0A66C2" d="M0 0h62v62H0z"/><path d="M17.943 21.606c0-.824.29-1.504.868-2.04.58-.535 1.332-.803 2.258-.803.91 0 1.645.264 2.207.791.58.544.869 1.253.869 2.126 0 .791-.282 1.45-.844 1.978-.579.544-1.34.816-2.282.816h-.025c-.91 0-1.645-.272-2.207-.816-.563-.544-.844-1.228-.844-2.052Zm.323 21.63V26.724h5.506v16.514h-5.506Zm8.557 0h5.507v-9.22c0-.577.066-1.022.198-1.335a3.587 3.587 0 0 1 1.055-1.421c.47-.388 1.062-.581 1.773-.581 1.852 0 2.778 1.244 2.778 3.732v8.826h5.507v-9.468c0-2.44-.579-4.29-1.737-5.55-1.157-1.26-2.687-1.891-4.588-1.891-2.134 0-3.796.915-4.986 2.744v.05h-.025l.025-.05v-2.349h-5.507c.033.528.05 2.168.05 4.92s-.017 6.617-.05 11.594Z" fill="#fff"/></svg>