<svg width="310" height="198" fill="none" xmlns="http://www.w3.org/2000/svg"><g clip-path="url('#clip0')"><path d="M277.5 0h-245C14.827 0 .5 14.327.5 32v134c0 17.673 14.327 32 32 32h245c17.673 0 32-14.327 32-32V32c0-17.673-14.327-32-32-32Z" fill="#FFCD1D"/><g filter="url('#filter0_d')"><path d="M227.254 27.7h-83.845c-8.42 0-15.245 6.824-15.245 15.244v112.113c0 8.419 6.825 15.244 15.245 15.244h83.845c8.419 0 15.244-6.825 15.244-15.244V42.944c0-8.42-6.825-15.245-15.244-15.245Z" fill="#fff" fill-opacity=".01"/></g><path d="M229.137 24.5H141.53c-8.797 0-15.928 7.131-15.928 15.928v117.144c0 8.797 7.131 15.928 15.928 15.928h87.607c8.797 0 15.929-7.131 15.929-15.928V40.428c0-8.797-7.132-15.928-15.929-15.928Z" fill="#fff"/><g filter="url('#filter1_d')"><path d="M138.727 47.5a5.195 5.195 0 0 1 5.195-5.195h5.382a5.195 5.195 0 0 1 5.195 5.195v5.382a5.195 5.195 0 0 1-5.195 5.195h-5.382a5.195 5.195 0 0 1-5.195-5.195V47.5Z" fill="#FFCD1D" fill-opacity=".01"/></g><path d="M137.547 47.097a5.973 5.973 0 0 1 5.973-5.973h6.188a5.973 5.973 0 0 1 5.973 5.973v6.188a5.973 5.973 0 0 1-5.973 5.973h-6.188a5.973 5.973 0 0 1-5.973-5.973v-6.188Z" fill="#FFCD1D"/><path d="m150.896 45.603-5.747 8.21a.832.832 0 0 1-.674.36.839.839 0 0 1-.685-.337l-1.462-1.95" stroke="#fff" stroke-width="1.991" stroke-linecap="round" stroke-linejoin="round"/><g filter="url('#filter2_d')"><path d="M138.727 72.602a5.195 5.195 0 0 1 5.195-5.195h5.382a5.195 5.195 0 0 1 5.195 5.195v5.382a5.195 5.195 0 0 1-5.195 5.195h-5.382a5.194 5.194 0 0 1-5.195-5.195v-5.382Z" fill="#FFCD1D" fill-opacity=".01"/></g><path d="M137.547 72.2a5.973 5.973 0 0 1 5.973-5.973h6.188a5.973 5.973 0 0 1 5.973 5.973v6.188a5.973 5.973 0 0 1-5.973 5.973h-6.188a5.973 5.973 0 0 1-5.973-5.973V72.2Z" fill="#FFCD1D"/><g filter="url('#filter3_d')"><path d="M138.727 96.709a5.195 5.195 0 0 1 5.195-5.195h5.382a5.195 5.195 0 0 1 5.195 5.195v5.381a5.195 5.195 0 0 1-5.195 5.196h-5.382a5.195 5.195 0 0 1-5.195-5.196v-5.381Z" fill="#FFCD1D" fill-opacity=".01"/></g><path d="M137.547 96.306a5.973 5.973 0 0 1 5.973-5.973h6.188a5.973 5.973 0 0 1 5.973 5.973v6.188a5.973 5.973 0 0 1-5.973 5.973h-6.188a5.973 5.973 0 0 1-5.973-5.973v-6.188Z" fill="#FFCD1D"/><path d="M143.521 115.632h6.188a4.977 4.977 0 0 1 4.977 4.977v6.188a4.977 4.977 0 0 1-4.977 4.978h-6.188a4.978 4.978 0 0 1-4.978-4.978v-6.188a4.977 4.977 0 0 1 4.978-4.977ZM143.521 139.739h6.188a4.977 4.977 0 0 1 4.977 4.977v6.188a4.977 4.977 0 0 1-4.977 4.978h-6.188a4.978 4.978 0 0 1-4.978-4.978v-6.188a4.977 4.977 0 0 1 4.978-4.977Z" stroke="#BEBFCC" stroke-width="1.991"/><path opacity=".5" d="M188.325 46.209h-22.691a3.982 3.982 0 0 0 0 7.964h22.691a3.982 3.982 0 0 0 0-7.964ZM227.358 71.311h-61.329a3.982 3.982 0 0 0 0 7.965h61.329a3.982 3.982 0 1 0 0-7.965ZM202.469 96.872h-36.835a3.982 3.982 0 0 0 0 7.964h36.835a3.982 3.982 0 0 0 0-7.964ZM215.183 119.721h-49.549a3.982 3.982 0 0 0 0 7.964h49.549a3.982 3.982 0 0 0 0-7.964ZM227.357 143.828h-61.723a3.982 3.982 0 0 0 0 7.964h61.723a3.982 3.982 0 1 0 0-7.964Z" fill="#BEBFCC"/><path d="m150.896 71.009-5.747 8.21a.834.834 0 0 1-1.057.273.836.836 0 0 1-.302-.251l-1.462-1.949M150.896 95.116l-5.747 8.21a.839.839 0 0 1-1.359.023l-1.462-1.949" stroke="#fff" stroke-width="1.991" stroke-linecap="round" stroke-linejoin="round"/><g filter="url('#filter4_d')"><path d="M119.332 62.107h-33.95c-10.662 0-19.304 8.643-19.304 19.304v33.286c0 10.66 8.642 19.303 19.303 19.303h33.951c10.661 0 19.303-8.643 19.303-19.303V81.411c0-10.661-8.642-19.304-19.303-19.304Z" fill="#fff" fill-opacity=".01"/></g><path d="M119.867 60.977H84.848c-10.996 0-19.91 8.914-19.91 19.91v34.333c0 10.996 8.914 19.911 19.91 19.911h35.019c10.996 0 19.91-8.915 19.91-19.911V80.887c0-10.996-8.914-19.91-19.91-19.91Z" fill="#fff"/><g filter="url('#filter5_d')"><path d="M105.626 117.177h-6.54a.866.866 0 0 0-.741.414.87.87 0 0 0-.038.849l.586 1.17a3.469 3.469 0 0 0 3.115 1.926h.697a3.471 3.471 0 0 0 3.116-1.918l.586-1.17a.869.869 0 0 0-.781-1.262v-.009Z" fill="#FFCD1D" fill-opacity=".01"/></g><path d="M106.341 116.7h-7.97a1.066 1.066 0 0 0-1.061 1.016c-.008.181.03.361.111.523l.714 1.426a4.231 4.231 0 0 0 3.796 2.348h.85a4.227 4.227 0 0 0 3.798-2.338l.714-1.426a1.064 1.064 0 0 0-.952-1.538v-.011Z" fill="#FFCD1D"/><g filter="url('#filter6_d')"><path d="M102.356 80a1.87 1.87 0 0 0 1.87-1.87v-4.678a1.87 1.87 0 1 0-3.742 0v4.677A1.87 1.87 0 0 0 102.356 80Z" fill="#FFCD1D" fill-opacity=".01"/></g><path d="M102.356 80.572a2.124 2.124 0 0 0 2.125-2.125v-5.313a2.124 2.124 0 0 0-3.628-1.503c-.399.399-.623.94-.623 1.503v5.313a2.124 2.124 0 0 0 2.126 2.125Z" fill="#FFCD1D"/><g filter="url('#filter7_d')"><path d="M121.459 79.534a1.852 1.852 0 0 0-2.621 0l-3.276 3.278a1.839 1.839 0 0 0-.566 1.318 1.86 1.86 0 0 0 .543 1.327 1.84 1.84 0 0 0 1.327.543 1.853 1.853 0 0 0 1.317-.566l3.276-3.278a1.853 1.853 0 0 0 0-2.622Z" fill="#FFCD1D" fill-opacity=".01"/></g><path d="M121.892 79.1a2.124 2.124 0 0 0-3.005 0l-3.755 3.758a2.118 2.118 0 0 0-.648 1.51 2.112 2.112 0 0 0 .622 1.521 2.121 2.121 0 0 0 2.341.45 2.12 2.12 0 0 0 .69-.476l3.755-3.757a2.123 2.123 0 0 0 0-3.005Z" fill="#FFCD1D"/><g filter="url('#filter8_d')"><path d="M125.556 96.69h-3.891a1.946 1.946 0 0 0 0 3.891h3.891a1.948 1.948 0 0 0 1.946-1.945 1.945 1.945 0 0 0-1.946-1.946Z" fill="#FFCD1D" fill-opacity=".01"/></g><path d="M125.735 96.51h-4.25a2.124 2.124 0 1 0 0 4.251h4.25a2.128 2.128 0 0 0 2.125-2.125 2.127 2.127 0 0 0-2.125-2.125Z" fill="#FFCD1D"/><g filter="url('#filter9_d')"><path d="m89.195 82.816-3.323-3.323a1.88 1.88 0 0 0-2.657 2.657l3.322 3.323a1.88 1.88 0 0 0 2.657-2.657Z" fill="#FFCD1D" fill-opacity=".01"/></g><path d="m89.585 82.859-3.757-3.757a2.125 2.125 0 0 0-3.005 3.004l3.757 3.758a2.125 2.125 0 0 0 3.005-3.005Z" fill="#FFCD1D"/><g filter="url('#filter10_d')"><path d="M82.804 96.939h-3.395a1.698 1.698 0 1 0 0 3.394h3.395a1.698 1.698 0 0 0 0-3.394Z" fill="#FFCD1D" fill-opacity=".01"/></g><path d="M83.231 96.51h-4.25a2.125 2.125 0 1 0 0 4.251h4.25a2.127 2.127 0 0 0 2.125-2.125 2.125 2.125 0 0 0-2.125-2.125Z" fill="#FFCD1D"/><g filter="url('#filter11_d')"><path d="M102.356 85.272a12.41 12.41 0 0 0-7.093 22.579.96.96 0 0 1 .411.785v1.455a1.911 1.911 0 0 0 1.91 1.909h9.545a1.91 1.91 0 0 0 1.909-1.909v-1.457a.952.952 0 0 1 .411-.785 12.403 12.403 0 0 0 4.747-13.894 12.404 12.404 0 0 0-11.84-8.684Z" fill="#FFCD1D" fill-opacity=".01"/></g><path d="M102.356 83.76a13.814 13.814 0 0 0-7.895 25.134 1.066 1.066 0 0 1 .457.874v1.619a2.126 2.126 0 0 0 2.125 2.125h10.626a2.121 2.121 0 0 0 2.125-2.125v-1.621a1.057 1.057 0 0 1 .457-.874 13.804 13.804 0 0 0-7.895-25.132Z" fill="#FFCD1D"/></g><defs><filter id="filter0_d" x="109.229" y="13.463" width="152.204" height="180.472" filterUnits="userSpaceOnUse" color-interpolation-filters="sRGB"><feFlood flood-opacity="0" result="BackgroundImageFix"/><feColorMatrix in="SourceAlpha" values="0 0 0 0 0 0 0 0 0 0 0 0 0 0 0 0 0 0 127 0"/><feOffset dy="4.699"/><feGaussianBlur stdDeviation="9.467"/><feColorMatrix values="0 0 0 0 1 0 0 0 0 0.587917 0 0 0 0 0.104167 0 0 0 0.5 0"/><feBlend in2="BackgroundImageFix" result="effect1_dropShadow"/><feBlend in="SourceGraphic" in2="effect1_dropShadow" result="shape"/></filter><filter id="filter1_d" x="133.727" y="40.305" width="25.772" height="25.772" filterUnits="userSpaceOnUse" color-interpolation-filters="sRGB"><feFlood flood-opacity="0" result="BackgroundImageFix"/><feColorMatrix in="SourceAlpha" values="0 0 0 0 0 0 0 0 0 0 0 0 0 0 0 0 0 0 127 0"/><feOffset dy="3"/><feGaussianBlur stdDeviation="2.5"/><feColorMatrix values="0 0 0 0 1 0 0 0 0 0.80475 0 0 0 0 0.1125 0 0 0 0.29 0"/><feBlend in2="BackgroundImageFix" result="effect1_dropShadow"/><feBlend in="SourceGraphic" in2="effect1_dropShadow" result="shape"/></filter><filter id="filter2_d" x="133.727" y="65.407" width="25.772" height="25.772" filterUnits="userSpaceOnUse" color-interpolation-filters="sRGB"><feFlood flood-opacity="0" result="BackgroundImageFix"/><feColorMatrix in="SourceAlpha" values="0 0 0 0 0 0 0 0 0 0 0 0 0 0 0 0 0 0 127 0"/><feOffset dy="3"/><feGaussianBlur stdDeviation="2.5"/><feColorMatrix values="0 0 0 0 1 0 0 0 0 0.80475 0 0 0 0 0.1125 0 0 0 0.29 0"/><feBlend in2="BackgroundImageFix" result="effect1_dropShadow"/><feBlend in="SourceGraphic" in2="effect1_dropShadow" result="shape"/></filter><filter id="filter3_d" x="135.022" y="90.588" width="23.181" height="23.18" filterUnits="userSpaceOnUse" color-interpolation-filters="sRGB"><feFlood flood-opacity="0" result="BackgroundImageFix"/><feColorMatrix in="SourceAlpha" values="0 0 0 0 0 0 0 0 0 0 0 0 0 0 0 0 0 0 127 0"/><feOffset dy="2.778"/><feGaussianBlur stdDeviation="1.852"/><feColorMatrix values="0 0 0 0 1 0 0 0 0 0.80475 0 0 0 0 0.1125 0 0 0 0.29 0"/><feBlend in2="BackgroundImageFix" result="effect1_dropShadow"/><feBlend in="SourceGraphic" in2="effect1_dropShadow" result="shape"/></filter><filter id="filter4_d" x="42.185" y="42.197" width="120.343" height="119.678" filterUnits="userSpaceOnUse" color-interpolation-filters="sRGB"><feFlood flood-opacity="0" result="BackgroundImageFix"/><feColorMatrix in="SourceAlpha" values="0 0 0 0 0 0 0 0 0 0 0 0 0 0 0 0 0 0 127 0"/><feOffset dy="3.982"/><feGaussianBlur stdDeviation="11.946"/><feColorMatrix values="0 0 0 0 1 0 0 0 0 0.80475 0 0 0 0 0.1125 0 0 0 0.4 0"/><feBlend in2="BackgroundImageFix" result="effect1_dropShadow"/><feBlend in="SourceGraphic" in2="effect1_dropShadow" result="shape"/></filter><filter id="filter5_d" x="40.215" y="62.177" width="124.284" height="120.359" filterUnits="userSpaceOnUse" color-interpolation-filters="sRGB"><feFlood flood-opacity="0" result="BackgroundImageFix"/><feColorMatrix in="SourceAlpha" values="0 0 0 0 0 0 0 0 0 0 0 0 0 0 0 0 0 0 127 0"/><feOffset dy="3"/><feGaussianBlur stdDeviation="29"/><feColorMatrix values="0 0 0 0 1 0 0 0 0 0.80475 0 0 0 0 0.1125 0 0 0 0.25 0"/><feBlend in2="BackgroundImageFix" result="effect1_dropShadow"/><feBlend in="SourceGraphic" in2="effect1_dropShadow" result="shape"/></filter><filter id="filter6_d" x="95.484" y="68.581" width="13.742" height="18.419" filterUnits="userSpaceOnUse" color-interpolation-filters="sRGB"><feFlood flood-opacity="0" result="BackgroundImageFix"/><feColorMatrix in="SourceAlpha" values="0 0 0 0 0 0 0 0 0 0 0 0 0 0 0 0 0 0 127 0"/><feOffset dy="2"/><feGaussianBlur stdDeviation="2.5"/><feColorMatrix values="0 0 0 0 1 0 0 0 0 0.80475 0 0 0 0 0.1125 0 0 0 0.2 0"/><feBlend in2="BackgroundImageFix" result="effect1_dropShadow"/><feBlend in="SourceGraphic" in2="effect1_dropShadow" result="shape"/></filter><filter id="filter7_d" x="109.996" y="75.991" width="17.007" height="17.009" filterUnits="userSpaceOnUse" color-interpolation-filters="sRGB"><feFlood flood-opacity="0" result="BackgroundImageFix"/><feColorMatrix in="SourceAlpha" values="0 0 0 0 0 0 0 0 0 0 0 0 0 0 0 0 0 0 127 0"/><feOffset dy="2"/><feGaussianBlur stdDeviation="2.5"/><feColorMatrix values="0 0 0 0 1 0 0 0 0 0.80475 0 0 0 0 0.1125 0 0 0 0.2 0"/><feBlend in2="BackgroundImageFix" result="effect1_dropShadow"/><feBlend in="SourceGraphic" in2="effect1_dropShadow" result="shape"/></filter><filter id="filter8_d" x="114.719" y="93.69" width="17.783" height="13.891" filterUnits="userSpaceOnUse" color-interpolation-filters="sRGB"><feFlood flood-opacity="0" result="BackgroundImageFix"/><feColorMatrix in="SourceAlpha" values="0 0 0 0 0 0 0 0 0 0 0 0 0 0 0 0 0 0 127 0"/><feOffset dy="2"/><feGaussianBlur stdDeviation="2.5"/><feColorMatrix values="0 0 0 0 1 0 0 0 0 0.80475 0 0 0 0 0.1125 0 0 0 0.2 0"/><feBlend in2="BackgroundImageFix" result="effect1_dropShadow"/><feBlend in="SourceGraphic" in2="effect1_dropShadow" result="shape"/></filter><filter id="filter9_d" x="78.688" y="76.966" width="15.034" height="15.034" filterUnits="userSpaceOnUse" color-interpolation-filters="sRGB"><feFlood flood-opacity="0" result="BackgroundImageFix"/><feColorMatrix in="SourceAlpha" values="0 0 0 0 0 0 0 0 0 0 0 0 0 0 0 0 0 0 127 0"/><feOffset dy="2"/><feGaussianBlur stdDeviation="2"/><feColorMatrix values="0 0 0 0 1 0 0 0 0 0.80475 0 0 0 0 0.1125 0 0 0 0.2 0"/><feBlend in2="BackgroundImageFix" result="effect1_dropShadow"/><feBlend in="SourceGraphic" in2="effect1_dropShadow" result="shape"/></filter><filter id="filter10_d" x="73.711" y="94.939" width="14.79" height="11.395" filterUnits="userSpaceOnUse" color-interpolation-filters="sRGB"><feFlood flood-opacity="0" result="BackgroundImageFix"/><feColorMatrix in="SourceAlpha" values="0 0 0 0 0 0 0 0 0 0 0 0 0 0 0 0 0 0 127 0"/><feOffset dy="2"/><feGaussianBlur stdDeviation="2"/><feColorMatrix values="0 0 0 0 1 0 0 0 0 0.80475 0 0 0 0 0.1125 0 0 0 0.2 0"/><feBlend in2="BackgroundImageFix" result="effect1_dropShadow"/><feBlend in="SourceGraphic" in2="effect1_dropShadow" result="shape"/></filter><filter id="filter11_d" x="86.965" y="83.267" width="30.801" height="32.728" filterUnits="userSpaceOnUse" color-interpolation-filters="sRGB"><feFlood flood-opacity="0" result="BackgroundImageFix"/><feColorMatrix in="SourceAlpha" values="0 0 0 0 0 0 0 0 0 0 0 0 0 0 0 0 0 0 127 0"/><feOffset dy=".996"/><feGaussianBlur stdDeviation="1.5"/><feColorMatrix values="0 0 0 0 1 0 0 0 0 0.80475 0 0 0 0 0.1125 0 0 0 0.2 0"/><feBlend in2="BackgroundImageFix" result="effect1_dropShadow"/><feBlend in="SourceGraphic" in2="effect1_dropShadow" result="shape"/></filter><clipPath id="clip0"><path fill="#fff" transform="translate(.5)" d="M0 0h309v198H0z"/></clipPath></defs></svg>