<svg version="1.1" id="Layer_1" xmlns="http://www.w3.org/2000/svg" x="0" y="0" viewBox="0 0 282 120" style="enable-background:new 0 0 282 120" xml:space="preserve"><style>.st0{fill:#552668}</style><path class="st0" d="M46.15 75.77H33.81v-1.7c.39-.03.79-.07 1.2-.1.4-.03.76-.1 1.07-.21.48-.15.84-.42 1.07-.81.23-.39.35-.89.35-1.5V58.36c0-1.78-.41-3.16-1.22-4.13-.81-.97-1.83-1.45-3.05-1.45-.84 0-1.63.13-2.37.39-.74.26-1.41.62-2.03 1.08-.5.38-.91.78-1.25 1.22-.33.44-.59.8-.76 1.09v14.63c0 .6.1 1.09.31 1.48.21.39.56.68 1.05.89.39.15.75.27 1.07.35.32.08.73.13 1.25.17v1.7H18.41v-1.7c.39-.03.78-.07 1.14-.1.37-.03.71-.1 1.02-.21.48-.15.84-.42 1.07-.81.23-.39.35-.89.35-1.5v-13.1c0-1.78-.41-3.16-1.22-4.13-.82-.97-1.83-1.45-3.05-1.45-.84 0-1.63.13-2.37.4-.74.27-1.42.63-2.04 1.09-.5.38-.92.8-1.26 1.27-.34.47-.6.83-.77 1.07v14.53c0 .58.12 1.07.36 1.47.24.39.6.69 1.08.9.36.17.73.3 1.11.39.38.09.8.15 1.26.18v1.7H2.75v-1.7c.39-.03.8-.07 1.22-.1.42-.03.78-.1 1.09-.21.48-.15.84-.42 1.07-.81.23-.39.35-.89.35-1.5V55.71c0-.55-.12-1.04-.37-1.48-.25-.44-.6-.81-1.04-1.12-.33-.21-.73-.37-1.21-.5s-.98-.21-1.49-.24v-1.7l8.48-.57.36.36v3.63h.18c.43-.43.95-.93 1.57-1.52.62-.58 1.19-1.05 1.72-1.41.6-.41 1.35-.75 2.25-1.03.9-.27 1.87-.41 2.92-.41 1.65 0 3.06.44 4.24 1.32 1.18.88 2.03 1.95 2.55 3.2.62-.6 1.16-1.13 1.63-1.58.47-.45 1.09-.94 1.86-1.45.65-.44 1.42-.81 2.3-1.08.88-.27 1.86-.41 2.94-.41 2.14 0 3.83.7 5.08 2.11s1.87 3.57 1.87 6.48v12.88c0 .6.1 1.09.31 1.48.21.39.56.68 1.05.89.39.15.78.27 1.17.35.39.08.82.13 1.3.17v1.69zM69.58 69.8c-1.06 2.02-2.49 3.63-4.27 4.83-1.78 1.2-3.83 1.8-6.14 1.8-2.04 0-3.83-.36-5.36-1.08-1.53-.72-2.8-1.7-3.79-2.93-.99-1.23-1.74-2.67-2.22-4.32-.49-1.65-.73-3.38-.73-5.22 0-1.65.26-3.26.78-4.85.52-1.58 1.29-3.01 2.3-4.28.98-1.22 2.19-2.2 3.64-2.94 1.45-.75 3.07-1.12 4.87-1.12 1.85 0 3.44.29 4.76.87 1.32.58 2.39 1.38 3.21 2.39.79.96 1.38 2.09 1.76 3.39.39 1.3.58 2.72.58 4.24v1.7h-16.8c0 1.67.16 3.18.48 4.54.32 1.36.82 2.55 1.5 3.58.67 1 1.54 1.78 2.62 2.36 1.08.58 2.37.86 3.86.86 1.53 0 2.84-.36 3.95-1.07 1.11-.72 2.17-2 3.2-3.86l1.8 1.11zm-5.69-9.67c0-.96-.08-1.98-.24-3.08-.16-1.09-.42-2.01-.78-2.74-.39-.79-.93-1.43-1.62-1.92-.69-.5-1.57-.74-2.65-.74-1.8 0-3.3.75-4.49 2.24-1.19 1.5-1.84 3.58-1.94 6.24h11.72zM88.16 74.66c-1.11.46-2.16.85-3.16 1.17-.99.32-2.21.48-3.65.48-2.13 0-3.62-.54-4.49-1.61-.87-1.07-1.3-2.58-1.3-4.54V52.99h-4.58v-2.47h4.68v-7.89h4.68v7.89h7.28v2.47H80.4v14.17c0 1.06.04 1.95.12 2.66.08.71.26 1.33.55 1.86.27.5.69.87 1.23 1.13.55.26 1.29.39 2.21.39.43 0 1.06-.04 1.89-.12.83-.08 1.42-.18 1.76-.3v1.88zM104.03 75.77H91.79v-1.7c.39-.03.8-.07 1.22-.1.42-.03.78-.1 1.09-.21.48-.15.84-.42 1.07-.81.23-.39.35-.89.35-1.5V55.81c0-.55-.12-1.05-.37-1.5s-.6-.83-1.04-1.14c-.33-.21-.8-.38-1.41-.53-.62-.15-1.18-.24-1.7-.27v-1.7l8.95-.57.36.36v20.67c0 .6.11 1.1.34 1.49.23.39.59.68 1.09.87.37.15.74.28 1.1.37.36.09.76.16 1.2.19v1.72zM117.47 76.43c-3.67 0-6.54-1.22-8.61-3.65-2.07-2.43-3.11-5.7-3.11-9.8 0-1.78.28-3.45.84-5a13.95 13.95 0 0 1 2.43-4.23c1.01-1.22 2.28-2.2 3.81-2.94 1.53-.75 3.19-1.12 4.99-1.12 2.48 0 4.51.6 6.07 1.79 1.56 1.19 2.34 2.82 2.34 4.87 0 .86-.21 1.61-.62 2.27-.41.66-1.09.99-2.03.99-1.01 0-1.8-.26-2.35-.77-.56-.51-.84-1.09-.84-1.72 0-.77.1-1.56.31-2.37s.33-1.41.36-1.78c-.31-.53-.77-.88-1.37-1.06-.61-.18-1.26-.27-1.96-.27-.82 0-1.6.18-2.35.53-.74.35-1.47 1-2.17 1.94-.63.86-1.15 2.01-1.54 3.47-.39 1.46-.59 3.2-.59 5.22 0 3.19.71 5.79 2.12 7.8 1.41 2.01 3.26 3.02 5.56 3.02 1.66 0 3.05-.41 4.17-1.21 1.12-.81 2.16-2.02 3.12-3.64l1.64 1.08c-1.13 2.02-2.62 3.62-4.47 4.81-1.87 1.18-3.78 1.77-5.75 1.77zM156.83 75.3l-8.28.57-.39-.36V72.3h-.15c-.41.43-.87.89-1.39 1.38-.51.49-1.1.93-1.77 1.32-.77.46-1.51.81-2.23 1.05s-1.74.36-3.05.36c-2.24 0-3.95-.73-5.12-2.2-1.17-1.46-1.76-3.59-1.76-6.38V55.71c0-.62-.12-1.13-.35-1.55-.23-.42-.57-.78-1.02-1.09-.31-.21-.7-.36-1.16-.45-.47-.09-.96-.16-1.47-.19v-1.7l8.46-.62.39.36v17.61c0 1.83.41 3.21 1.23 4.14.82.93 1.81 1.39 2.96 1.39.94 0 1.78-.15 2.52-.44.74-.29 1.35-.63 1.85-1.03.46-.36.87-.74 1.22-1.14.35-.4.62-.77.81-1.12V55.53c0-.56-.12-1.07-.36-1.5-.24-.44-.57-.81-1-1.12-.31-.21-.77-.33-1.38-.37-.61-.04-1.29-.08-2.04-.12v-1.7l9.23-.62.39.36v20.11c0 .58.12 1.08.36 1.49.24.41.57.76 1 1.05.31.19.68.31 1.11.37.43.06.9.1 1.41.12v1.7zM170.76 75.77H158.4v-1.7c.39-.03.81-.07 1.26-.12.45-.04.81-.11 1.11-.19.48-.15.84-.42 1.08-.81.24-.39.36-.89.36-1.51V42.06c0-.62-.13-1.2-.4-1.74s-.61-.96-1.04-1.27c-.31-.21-.87-.39-1.7-.57-.82-.17-1.48-.27-1.98-.31v-1.65l9.54-.57.36.39v34.79c0 .6.11 1.09.33 1.48.22.39.58.68 1.08.89.38.17.75.3 1.12.39.37.09.78.15 1.25.18v1.7zM196.79 62.83c0 1.78-.28 3.53-.85 5.26-.57 1.72-1.37 3.18-2.42 4.38-1.18 1.37-2.56 2.39-4.12 3.06-1.56.67-3.31 1-5.25 1-1.61 0-3.15-.3-4.61-.91s-2.75-1.5-3.89-2.66c-1.12-1.15-2-2.55-2.66-4.2-.66-1.65-.99-3.51-.99-5.57 0-3.96 1.15-7.2 3.46-9.72 2.31-2.52 5.33-3.78 9.07-3.78 3.55 0 6.48 1.2 8.79 3.59 2.32 2.39 3.47 5.58 3.47 9.55zm-5.32.06c0-1.29-.13-2.64-.39-4.08-.26-1.43-.64-2.64-1.16-3.64-.55-1.06-1.27-1.92-2.16-2.56-.89-.64-1.98-.96-3.27-.96-1.32 0-2.45.33-3.39.98-.94.65-1.7 1.54-2.28 2.67-.55 1.05-.94 2.24-1.16 3.57-.22 1.34-.33 2.63-.33 3.88 0 1.65.13 3.17.4 4.56.27 1.4.69 2.64 1.27 3.74.58 1.1 1.32 1.96 2.2 2.58.88.63 1.98.94 3.28.94 2.15 0 3.85-1.04 5.1-3.11 1.26-2.06 1.89-4.92 1.89-8.57zM216.13 63.35c.7.62 1.24 1.33 1.62 2.13.38.81.57 1.79.57 2.96 0 2.35-.88 4.27-2.64 5.76-1.76 1.49-4.03 2.24-6.83 2.24-1.47 0-2.83-.27-4.08-.8-1.24-.53-2.13-1.02-2.66-1.47l-.51 1.67h-1.93l-.26-8.82h1.77c.14.67.43 1.45.87 2.35.44.89.99 1.7 1.62 2.43.67.76 1.47 1.39 2.4 1.91.93.52 1.98.77 3.15.77 1.65 0 2.91-.38 3.81-1.12.89-.75 1.34-1.82 1.34-3.22 0-.72-.14-1.34-.42-1.86-.28-.52-.7-.98-1.25-1.38-.57-.39-1.26-.75-2.08-1.07-.82-.32-1.74-.63-2.75-.94-.81-.24-1.7-.57-2.69-.99-.99-.42-1.83-.91-2.53-1.48a7.35 7.35 0 0 1-1.85-2.21c-.48-.87-.72-1.9-.72-3.09 0-2.07.77-3.83 2.31-5.27 1.54-1.44 3.61-2.16 6.2-2.16.99 0 2.01.13 3.05.39s1.88.57 2.53.93l.59-1.34h1.85l.39 8.15h-1.77c-.36-1.82-1.14-3.31-2.33-4.45-1.19-1.14-2.64-1.72-4.36-1.72-1.41 0-2.51.35-3.32 1.06-.81.71-1.21 1.56-1.21 2.56 0 .77.13 1.41.4 1.93.27.51.66.95 1.2 1.31.51.34 1.16.66 1.94.96.78.3 1.74.64 2.89 1.02 1.13.36 2.2.78 3.2 1.26 1.01.48 1.83 1.02 2.49 1.6zM233.54 75.77H221.3v-1.7c.39-.03.8-.07 1.22-.1.42-.03.78-.1 1.09-.21.48-.15.84-.42 1.07-.81.23-.39.35-.89.35-1.5V55.81c0-.55-.12-1.05-.37-1.5-.25-.45-.6-.83-1.04-1.14-.33-.21-.8-.38-1.41-.53-.62-.15-1.18-.24-1.7-.27v-1.7l8.95-.57.36.36v20.67c0 .6.11 1.1.34 1.49.23.39.59.68 1.09.87.37.15.74.28 1.1.37.36.09.76.16 1.2.19v1.72zm-3.22-35.66c0 .98-.32 1.83-.96 2.56-.64.73-1.44 1.09-2.38 1.09-.87 0-1.63-.35-2.28-1.04-.64-.69-.96-1.49-.96-2.38 0-.94.32-1.77.96-2.47.64-.7 1.4-1.05 2.28-1.05.98 0 1.78.33 2.4.99.63.65.94 1.42.94 2.3zM252.33 74.66c-1.11.46-2.17.85-3.16 1.17-.99.32-2.21.48-3.65.48-2.13 0-3.62-.54-4.49-1.61-.87-1.07-1.3-2.58-1.3-4.54V52.99h-4.58v-2.47h4.68v-7.89h4.68v7.89h7.28v2.47h-7.22v14.17c0 1.06.04 1.95.12 2.66.08.71.26 1.33.55 1.86.27.5.68.87 1.23 1.13.55.26 1.29.39 2.21.39.43 0 1.06-.04 1.89-.12.83-.08 1.42-.18 1.76-.3v1.88zM253.97 84.04c0-.86.23-1.55.71-2.09.47-.54 1.06-.81 1.76-.81.55 0 1.02.1 1.41.31.39.2.75.47 1.05.79.26.26.53.6.82 1.05.29.44.52.81.69 1.1.86-.46 1.88-1.67 3.07-3.62 1.19-1.95 2.05-3.66 2.58-5.13-1.63-4.06-3.1-7.69-4.42-10.9-1.32-3.2-2.7-6.52-4.14-9.95-.33-.79-.87-1.4-1.65-1.84a6.96 6.96 0 0 0-2.31-.84v-1.7h11.57v1.8c-.51.02-1.13.12-1.85.32-.72.2-1.08.42-1.08.68 0 .1.04.27.12.51.08.24.17.49.27.74.65 1.7 1.64 4.14 2.97 7.33 1.33 3.19 2.37 5.75 3.1 7.67.77-1.83 1.57-3.73 2.41-5.69.83-1.96 1.76-4.28 2.79-6.95l.51-1.35c.22-.57.33-1.07.33-1.48 0-.44-.39-.86-1.17-1.25-.78-.39-1.52-.62-2.22-.71v-1.64h9.41v1.59c-.51.09-1.19.38-2.03.89-.84.51-1.47 1.22-1.88 2.15-2.04 4.73-3.85 9.04-5.44 12.93-1.59 3.89-2.79 6.75-3.61 8.59-1.08 2.4-2.04 4.27-2.89 5.62-.85 1.35-1.68 2.4-2.48 3.18-.79.72-1.5 1.2-2.15 1.45-.64.25-1.31.37-1.99.37-1.34 0-2.39-.32-3.15-.95-.72-.61-1.11-1.34-1.11-2.17z"/><path d="M113.73 26.36C105.53 37.79 96 44.99 92.44 42.44c-3.56-2.55.19-13.89 8.39-25.32 8.19-11.43 17.73-18.63 21.29-16.08 3.56 2.54-.2 13.88-8.39 25.32z" style="fill:#5aba48"/><path d="M60.57 20.94c7.55 6.9 11.93 14.41 9.78 16.76-2.15 2.35-10.02-1.34-17.57-8.24-7.55-6.9-11.93-14.41-9.78-16.76 2.15-2.36 10.02 1.33 17.57 8.24z" style="fill:#6b7db2"/><path d="M87.15 102.19c-1.75 10.08-5.71 17.81-8.85 17.27-3.14-.54-4.27-9.16-2.52-19.24 1.75-10.08 5.72-17.81 8.86-17.27 3.14.54 4.26 9.16 2.51 19.24z" style="fill:#d25657"/></svg>