<svg width="525" height="297" fill="none" xmlns="http://www.w3.org/2000/svg"><path d="M365.1 1.146H167.181c-11.763 0-21.298 9.535-21.298 21.298v252.495c0 11.763 9.535 21.299 21.298 21.299H365.1c11.763 0 21.299-9.536 21.299-21.299V22.444c0-11.763-9.536-21.298-21.299-21.298Z" fill="#fff" stroke="#F1F1F1"/><path d="M159.84 63.093c0-10.895 8.832-19.727 19.727-19.727h173.147c10.895 0 19.727 8.832 19.727 19.727v195.369c0 10.895-8.832 19.727-19.727 19.727H179.567c-10.895 0-19.727-8.832-19.727-19.727V63.093Z" fill="#FAFAFC"/><g filter="url('#filter0_d')"><path d="M283.032 242.835h-33.787a8.015 8.015 0 1 0 0 16.028h33.787a8.014 8.014 0 0 0 0-16.028Z" fill="#1B76FF" fill-opacity=".01"/></g><path d="M283.032 242.835h-33.787a8.015 8.015 0 1 0 0 16.028h33.787a8.014 8.014 0 0 0 0-16.028Z" fill="#1B76FF"/><g filter="url('#filter1_d')"><path d="M175.219 30.235a6.75 6.75 0 1 0 .001-13.501 6.75 6.75 0 0 0-.001 13.5Z" fill="#F4263E" fill-opacity=".01"/></g><path d="M175.219 30.235a6.75 6.75 0 1 0 .001-13.501 6.75 6.75 0 0 0-.001 13.5Z" fill="#F4263E"/><g filter="url('#filter2_d')"><path d="M197.723 30.235a6.75 6.75 0 1 0 .001-13.501 6.75 6.75 0 0 0-.001 13.5Z" fill="#FFCD1D" fill-opacity=".01"/></g><path d="M197.723 30.235a6.75 6.75 0 1 0 .001-13.501 6.75 6.75 0 0 0-.001 13.5Z" fill="#FFCD1D"/><g filter="url('#filter3_d')"><path d="M220.223 30.235a6.75 6.75 0 1 0 .001-13.501 6.75 6.75 0 0 0-.001 13.5Z" fill="#83E436" fill-opacity=".01"/></g><path d="M220.223 30.235a6.75 6.75 0 1 0 .001-13.501 6.75 6.75 0 0 0-.001 13.5Z" fill="#83E436"/><path opacity=".76" d="M252.114 165.519h-70.56a7.398 7.398 0 0 0-7.398 7.397v53.656a7.398 7.398 0 0 0 7.398 7.397h70.56a7.398 7.398 0 0 0 7.398-7.397v-53.656a7.398 7.398 0 0 0-7.398-7.397ZM350.728 165.519h-70.561a7.397 7.397 0 0 0-7.397 7.397v53.656a7.397 7.397 0 0 0 7.397 7.397h70.561a7.397 7.397 0 0 0 7.397-7.397v-53.656a7.397 7.397 0 0 0-7.397-7.397Z" fill="#E7E8F1"/><path opacity=".4" d="M344.566 64.33h-60.281c-7.49 0-13.562 6.072-13.562 13.562v60.281c0 7.491 6.072 13.563 13.562 13.563h60.281c7.49 0 13.562-6.072 13.562-13.563v-60.28c0-7.49-6.072-13.563-13.562-13.563Z" fill="#1B76FF"/><path d="M247.516 73.753h-67.812a5.548 5.548 0 0 0 0 11.097h67.812a5.548 5.548 0 0 0 0-11.097Z" fill="#BEBFCC"/><path d="M237.04 94.468h-59.185a3.699 3.699 0 1 0 0 7.397h59.185a3.699 3.699 0 0 0 0-7.397ZM250.778 108.03h-72.923a3.699 3.699 0 1 0 0 7.398h72.923a3.699 3.699 0 0 0 0-7.398Z" fill="#E7E8F1"/><g filter="url('#filter4_d')"><path d="M215.957 126.285H182.17a8.014 8.014 0 0 0 0 16.028h33.787a8.015 8.015 0 1 0 0-16.028Z" fill="#1B76FF" fill-opacity=".01"/></g><path d="M215.957 126.285H182.17a8.014 8.014 0 0 0 0 16.028h33.787a8.015 8.015 0 1 0 0-16.028Z" fill="#1B76FF"/><path d="M492.105 18.314H354.571c-17.892 0-32.395 14.504-32.395 32.395v107.94c0 17.891 14.503 32.394 32.395 32.394h137.534c17.891 0 32.395-14.503 32.395-32.394V50.709c0-17.89-14.504-32.395-32.395-32.395ZM158.079 101.824H33.75c-17.89 0-32.395 14.504-32.395 32.395v114.647c0 17.892 14.504 32.395 32.395 32.395H158.08c17.891 0 32.394-14.503 32.394-32.395V134.219c0-17.891-14.503-32.395-32.394-32.395Z" fill="#fff" stroke="#F1F1F1"/><g filter="url('#filter5_d')"><path d="M147.563 196.055c2.21 0 4.014 1.793 3.868 3.998a60.166 60.166 0 0 1-37.006 51.584 60.165 60.165 0 0 1-65.562-13.042 60.158 60.158 0 0 1 9.116-92.561 60.155 60.155 0 0 1 29.427-10.006c2.204-.147 3.997 1.658 3.997 3.867v52.16a4 4 0 0 0 4 4h52.16Z" fill="#1B76FF" fill-opacity=".01"/></g><path d="M147.563 196.055c2.21 0 4.014 1.793 3.868 3.998a60.166 60.166 0 0 1-37.006 51.584 60.165 60.165 0 0 1-65.562-13.042 60.158 60.158 0 0 1 9.116-92.561 60.155 60.155 0 0 1 29.427-10.006c2.204-.147 3.997 1.658 3.997 3.867v52.16a4 4 0 0 0 4 4h52.16Z" fill="#1B76FF"/><g filter="url('#filter6_d')"><path d="M100.426 130.87c0-2.209 1.793-4.013 3.997-3.867a60.15 60.15 0 0 1 38.543 17.488 60.133 60.133 0 0 1 13.041 19.518 60.138 60.138 0 0 1 4.447 19.025c.147 2.204-1.658 3.997-3.867 3.997h-52.161a4 4 0 0 1-4-4V130.87Z" fill="#782CE4" fill-opacity=".01"/></g><path d="M100.426 130.87c0-2.209 1.793-4.013 3.997-3.867a60.15 60.15 0 0 1 38.543 17.488 60.133 60.133 0 0 1 13.041 19.518 60.138 60.138 0 0 1 4.447 19.025c.147 2.204-1.658 3.997-3.867 3.997h-52.161a4 4 0 0 1-4-4V130.87Z" fill="#782CE4"/><path opacity=".2" d="M463.158 38.985h-79.636a5.096 5.096 0 1 0 0 10.192h79.636a5.096 5.096 0 1 0 0-10.192Z" fill="#62668A"/><g filter="url('#filter7_d')"><path d="M373.993 92.7a3.795 3.795 0 1 0-7.591 0v69.162a3.796 3.796 0 0 0 7.591 0V92.7Z" fill="#1B76FF" fill-opacity=".01"/></g><g filter="url('#filter8_d')"><path d="M480.271 69.686a3.796 3.796 0 0 0-7.591 0v92.176a3.795 3.795 0 1 0 7.591 0V69.686Z" fill="#1B76FF" fill-opacity=".01"/></g><g filter="url('#filter9_d')"><path d="M409.419 96.608a3.795 3.795 0 1 0-7.591 0v65.254a3.795 3.795 0 0 0 7.591 0V96.608Z" fill="#1B76FF" fill-opacity=".01"/></g><g filter="url('#filter10_d')"><path d="M444.845 88.101a3.795 3.795 0 1 0-7.591 0v73.76a3.795 3.795 0 1 0 7.591 0v-73.76Z" fill="#1B76FF" fill-opacity=".01"/></g><path d="M373.993 92.7a3.795 3.795 0 1 0-7.591 0v69.162a3.796 3.796 0 0 0 7.591 0V92.7ZM480.271 69.686a3.796 3.796 0 0 0-7.591 0v92.176a3.795 3.795 0 1 0 7.591 0V69.686ZM409.419 96.608a3.795 3.795 0 1 0-7.591 0v65.254a3.795 3.795 0 0 0 7.591 0V96.608ZM444.845 88.101a3.795 3.795 0 1 0-7.591 0v73.76a3.795 3.795 0 1 0 7.591 0v-73.76Z" fill="#1B76FF"/><g filter="url('#filter11_d')" fill="#782CE4" fill-opacity=".01"><path d="M356.283 103.218a3.796 3.796 0 0 0-7.592 0v58.644a3.796 3.796 0 0 0 7.592 0v-58.644ZM462.56 103.218a3.795 3.795 0 0 0-7.591 0v58.644a3.795 3.795 0 1 0 7.591 0v-58.644ZM391.708 119.115a3.796 3.796 0 1 0-7.591 0v42.747a3.797 3.797 0 0 0 7.591 0v-42.747ZM427.134 125.738a3.796 3.796 0 1 0-7.591 0v36.124a3.795 3.795 0 0 0 7.591 0v-36.124ZM497.986 55.89a3.796 3.796 0 0 0-7.591 0v105.971a3.796 3.796 0 1 0 7.591 0V55.891Z"/></g><path d="M356.283 103.218a3.796 3.796 0 0 0-7.592 0v58.644a3.796 3.796 0 0 0 7.592 0v-58.644ZM462.56 103.218a3.795 3.795 0 0 0-7.591 0v58.644a3.795 3.795 0 1 0 7.591 0v-58.644ZM391.708 119.115a3.796 3.796 0 1 0-7.591 0v42.747a3.797 3.797 0 0 0 7.591 0v-42.747ZM427.134 125.738a3.796 3.796 0 1 0-7.591 0v36.124a3.795 3.795 0 0 0 7.591 0v-36.124ZM497.986 55.89a3.796 3.796 0 0 0-7.591 0v105.971a3.796 3.796 0 1 0 7.591 0V55.891Z" fill="#782CE4"/><defs><filter id="filter0_d" x="234.23" y="239.835" width="63.815" height="30.028" filterUnits="userSpaceOnUse" color-interpolation-filters="sRGB"><feFlood flood-opacity="0" result="BackgroundImageFix"/><feColorMatrix in="SourceAlpha" values="0 0 0 0 0 0 0 0 0 0 0 0 0 0 0 0 0 0 127 0"/><feOffset dy="4"/><feGaussianBlur stdDeviation="3.5"/><feColorMatrix values="0 0 0 0 0.105882 0 0 0 0 0.462745 0 0 0 0 1 0 0 0 0.12 0"/><feBlend in2="BackgroundImageFix" result="effect1_dropShadow"/><feBlend in="SourceGraphic" in2="effect1_dropShadow" result="shape"/></filter><filter id="filter1_d" x="163.537" y="16.733" width="23.365" height="23.365" filterUnits="userSpaceOnUse" color-interpolation-filters="sRGB"><feFlood flood-opacity="0" result="BackgroundImageFix"/><feColorMatrix in="SourceAlpha" values="0 0 0 0 0 0 0 0 0 0 0 0 0 0 0 0 0 0 127 0"/><feOffset dy="4.932"/><feGaussianBlur stdDeviation="2.466"/><feColorMatrix values="0 0 0 0 0.956863 0 0 0 0 0.14902 0 0 0 0 0.243137 0 0 0 0.12 0"/><feBlend in2="BackgroundImageFix" result="effect1_dropShadow"/><feBlend in="SourceGraphic" in2="effect1_dropShadow" result="shape"/></filter><filter id="filter2_d" x="186.041" y="16.733" width="23.365" height="23.365" filterUnits="userSpaceOnUse" color-interpolation-filters="sRGB"><feFlood flood-opacity="0" result="BackgroundImageFix"/><feColorMatrix in="SourceAlpha" values="0 0 0 0 0 0 0 0 0 0 0 0 0 0 0 0 0 0 127 0"/><feOffset dy="4.932"/><feGaussianBlur stdDeviation="2.466"/><feColorMatrix values="0 0 0 0 1 0 0 0 0 0.80475 0 0 0 0 0.1125 0 0 0 0.25 0"/><feBlend in2="BackgroundImageFix" result="effect1_dropShadow"/><feBlend in="SourceGraphic" in2="effect1_dropShadow" result="shape"/></filter><filter id="filter3_d" x="208.541" y="16.733" width="23.365" height="23.365" filterUnits="userSpaceOnUse" color-interpolation-filters="sRGB"><feFlood flood-opacity="0" result="BackgroundImageFix"/><feColorMatrix in="SourceAlpha" values="0 0 0 0 0 0 0 0 0 0 0 0 0 0 0 0 0 0 127 0"/><feOffset dy="4.932"/><feGaussianBlur stdDeviation="2.466"/><feColorMatrix values="0 0 0 0 0.513726 0 0 0 0 0.894118 0 0 0 0 0.211765 0 0 0 0.25 0"/><feBlend in2="BackgroundImageFix" result="effect1_dropShadow"/><feBlend in="SourceGraphic" in2="effect1_dropShadow" result="shape"/></filter><filter id="filter4_d" x="168.156" y="122.285" width="61.815" height="28.028" filterUnits="userSpaceOnUse" color-interpolation-filters="sRGB"><feFlood flood-opacity="0" result="BackgroundImageFix"/><feColorMatrix in="SourceAlpha" values="0 0 0 0 0 0 0 0 0 0 0 0 0 0 0 0 0 0 127 0"/><feOffset dy="2"/><feGaussianBlur stdDeviation="3"/><feColorMatrix values="0 0 0 0 0.105882 0 0 0 0 0.462745 0 0 0 0 1 0 0 0 0.18 0"/><feBlend in2="BackgroundImageFix" result="effect1_dropShadow"/><feBlend in="SourceGraphic" in2="effect1_dropShadow" result="shape"/></filter><filter id="filter5_d" x="19.242" y="129.02" width="144.197" height="144.196" filterUnits="userSpaceOnUse" color-interpolation-filters="sRGB"><feFlood flood-opacity="0" result="BackgroundImageFix"/><feColorMatrix in="SourceAlpha" values="0 0 0 0 0 0 0 0 0 0 0 0 0 0 0 0 0 0 127 0"/><feOffset dy="5"/><feGaussianBlur stdDeviation="6"/><feColorMatrix values="0 0 0 0 0.105882 0 0 0 0 0.462745 0 0 0 0 1 0 0 0 0.12 0"/><feBlend in2="BackgroundImageFix" result="effect1_dropShadow"/><feBlend in="SourceGraphic" in2="effect1_dropShadow" result="shape"/></filter><filter id="filter6_d" x="92.426" y="123.995" width="76.036" height="76.036" filterUnits="userSpaceOnUse" color-interpolation-filters="sRGB"><feFlood flood-opacity="0" result="BackgroundImageFix"/><feColorMatrix in="SourceAlpha" values="0 0 0 0 0 0 0 0 0 0 0 0 0 0 0 0 0 0 127 0"/><feOffset dy="5"/><feGaussianBlur stdDeviation="4"/><feColorMatrix values="0 0 0 0 0.470588 0 0 0 0 0.172549 0 0 0 0 0.894118 0 0 0 0.25 0"/><feBlend in2="BackgroundImageFix" result="effect1_dropShadow"/><feBlend in="SourceGraphic" in2="effect1_dropShadow" result="shape"/></filter><filter id="filter7_d" x="358.402" y="83.904" width="23.591" height="92.753" filterUnits="userSpaceOnUse" color-interpolation-filters="sRGB"><feFlood flood-opacity="0" result="BackgroundImageFix"/><feColorMatrix in="SourceAlpha" values="0 0 0 0 0 0 0 0 0 0 0 0 0 0 0 0 0 0 127 0"/><feOffset dy="3"/><feGaussianBlur stdDeviation="4"/><feColorMatrix values="0 0 0 0 0.105882 0 0 0 0 0.462745 0 0 0 0 1 0 0 0 0.14 0"/><feBlend in2="BackgroundImageFix" result="effect1_dropShadow"/><feBlend in="SourceGraphic" in2="effect1_dropShadow" result="shape"/></filter><filter id="filter8_d" x="464.68" y="60.891" width="23.591" height="115.767" filterUnits="userSpaceOnUse" color-interpolation-filters="sRGB"><feFlood flood-opacity="0" result="BackgroundImageFix"/><feColorMatrix in="SourceAlpha" values="0 0 0 0 0 0 0 0 0 0 0 0 0 0 0 0 0 0 127 0"/><feOffset dy="3"/><feGaussianBlur stdDeviation="4"/><feColorMatrix values="0 0 0 0 0.105882 0 0 0 0 0.462745 0 0 0 0 1 0 0 0 0.14 0"/><feBlend in2="BackgroundImageFix" result="effect1_dropShadow"/><feBlend in="SourceGraphic" in2="effect1_dropShadow" result="shape"/></filter><filter id="filter9_d" x="393.828" y="87.813" width="23.591" height="88.845" filterUnits="userSpaceOnUse" color-interpolation-filters="sRGB"><feFlood flood-opacity="0" result="BackgroundImageFix"/><feColorMatrix in="SourceAlpha" values="0 0 0 0 0 0 0 0 0 0 0 0 0 0 0 0 0 0 127 0"/><feOffset dy="3"/><feGaussianBlur stdDeviation="4"/><feColorMatrix values="0 0 0 0 0.105882 0 0 0 0 0.462745 0 0 0 0 1 0 0 0 0.14 0"/><feBlend in2="BackgroundImageFix" result="effect1_dropShadow"/><feBlend in="SourceGraphic" in2="effect1_dropShadow" result="shape"/></filter><filter id="filter10_d" x="429.254" y="79.306" width="23.591" height="97.351" filterUnits="userSpaceOnUse" color-interpolation-filters="sRGB"><feFlood flood-opacity="0" result="BackgroundImageFix"/><feColorMatrix in="SourceAlpha" values="0 0 0 0 0 0 0 0 0 0 0 0 0 0 0 0 0 0 127 0"/><feOffset dy="3"/><feGaussianBlur stdDeviation="4"/><feColorMatrix values="0 0 0 0 0.105882 0 0 0 0 0.462745 0 0 0 0 1 0 0 0 0.14 0"/><feBlend in2="BackgroundImageFix" result="effect1_dropShadow"/><feBlend in="SourceGraphic" in2="effect1_dropShadow" result="shape"/></filter><filter id="filter11_d" x="341.294" y="47.163" width="164.09" height="128.358" filterUnits="userSpaceOnUse" color-interpolation-filters="sRGB"><feFlood flood-opacity="0" result="BackgroundImageFix"/><feColorMatrix in="SourceAlpha" values="0 0 0 0 0 0 0 0 0 0 0 0 0 0 0 0 0 0 127 0"/><feOffset dy="2.466"/><feGaussianBlur stdDeviation="3.699"/><feColorMatrix values="0 0 0 0 0.470588 0 0 0 0 0.172549 0 0 0 0 0.894118 0 0 0 0.15 0"/><feBlend in2="BackgroundImageFix" result="effect1_dropShadow"/><feBlend in="SourceGraphic" in2="effect1_dropShadow" result="shape"/></filter></defs></svg>