<svg width="62" height="62" fill="none" xmlns="http://www.w3.org/2000/svg"><path fill="#fff" d="M0 0h62v62H0z"/><path fill="#1DA1F2" d="M0 0h62v62H0z"/><path d="M34.201 20.01v-.005h1.273l.465.093c.31.06.592.14.844.238.253.098.498.213.735.344.236.13.45.264.643.4.191.134.362.277.514.427.15.152.384.191.703.118.318-.074.66-.176 1.028-.307.367-.13.73-.278 1.089-.442.358-.163.577-.267.656-.312l.122-.073.005-.008.024-.012.025-.012.024-.012.025-.013.005-.007.007-.005.007-.005.005-.007.025-.008.024-.004-.005.036-.007.037-.012.037-.013.037-.012.024-.012.025-.012.037a.865.865 0 0 0-.025.098c-.008.04-.085.204-.232.49-.147.287-.33.578-.551.872-.22.295-.418.517-.592.668a5.69 5.69 0 0 0-.35.319c-.057.062-.127.12-.208.172l-.123.08-.024.013-.025.012-.005.008-.007.005-.007.005-.005.007-.025.012-.024.012-.005.008-.007.005-.008.005-.005.007-.004.007-.008.005-.007.005-.005.007h.122l.686-.147c.456-.098.893-.217 1.309-.356l.66-.22.074-.025.037-.012.024-.013.025-.012.024-.012.025-.012.049-.008.049-.005v.05l-.012.004-.013.008-.005.007-.007.005-.007.005-.005.007-.005.008-.008.004-.007.005-.005.008-.005.007-.007.005-.012.024-.012.025-.008.005-.31.417c-.205.275-.315.414-.331.417-.016.005-.04.03-.069.074-.027.046-.2.228-.518.547-.319.32-.63.603-.935.852-.307.25-.462.558-.465.923-.005.363-.024.774-.056 1.232-.033.458-.094.953-.184 1.485-.09.532-.229 1.133-.416 1.804-.188.671-.416 1.326-.685 1.964-.27.638-.551 1.21-.845 1.718-.293.507-.563.937-.807 1.289-.245.352-.494.683-.747.994a14.65 14.65 0 0 1-.96 1.05c-.388.388-.6.6-.636.638-.037.036-.197.17-.48.403-.28.234-.582.468-.905.702a10.5 10.5 0 0 1-.886.582c-.269.155-.593.333-.974.532-.378.202-.788.388-1.228.56-.44.172-.906.331-1.395.479-.49.147-.963.261-1.42.343-.457.082-.975.152-1.554.209l-.869.086v.012h-1.59v-.012l-.209-.012a11.126 11.126 0 0 1-.342-.025c-.09-.008-.428-.053-1.016-.135a14.626 14.626 0 0 1-1.383-.245 18.295 18.295 0 0 1-1.492-.467c-.661-.229-1.226-.46-1.696-.694-.469-.233-.762-.38-.882-.442a6.284 6.284 0 0 1-.396-.226l-.22-.135-.005-.008-.008-.004-.007-.005-.005-.008-.024-.012-.025-.012-.005-.008-.007-.005-.007-.004-.005-.008-.005-.007-.007-.005h-.013v-.05l.025.006.024.007.11.012c.074.009.274.02.6.037a10.99 10.99 0 0 0 3.524-.405 10 10 0 0 0 1.44-.496c.435-.193.745-.337.93-.432.182-.093.461-.266.836-.52l.563-.38.005-.008.008-.005.007-.004.005-.008.005-.007.007-.005.007-.005.005-.008.025-.007.024-.005.005-.024.007-.025.008-.005.005-.007-.196-.012-.38-.025a3.667 3.667 0 0 1-.575-.11 5.502 5.502 0 0 1-.844-.295 6.501 6.501 0 0 1-.881-.466 4.325 4.325 0 0 1-.62-.45 10.81 10.81 0 0 1-.489-.5 4.967 4.967 0 0 1-.518-.67 6.025 6.025 0 0 1-.421-.793l-.204-.447-.012-.037-.012-.036-.007-.025-.005-.024.036.004.037.008.27.037c.179.024.46.032.844.024.383-.008.648-.024.795-.049.147-.024.237-.04.27-.049l.048-.012.061-.013.062-.012.005-.007.007-.005.007-.005.005-.007-.049-.013-.049-.012-.049-.012-.049-.012-.049-.013a4.4 4.4 0 0 1-.171-.049 9.427 9.427 0 0 1-.66-.27 5.058 5.058 0 0 1-.857-.454 5.919 5.919 0 0 1-.607-.483c-.191-.177-.4-.405-.63-.683a4.909 4.909 0 0 1-.611-.97 5.905 5.905 0 0 1-.404-1.055 5.718 5.718 0 0 1-.176-1.018l-.044-.516.024.005.025.007.024.013.025.012.024.012.025.013.379.171c.253.115.567.213.942.295.375.082.6.127.673.135l.11.012h.22l-.004-.007-.008-.005-.007-.005-.005-.007-.005-.008-.007-.005-.007-.005-.005-.007-.025-.012-.024-.012-.005-.008-.008-.005-.007-.005-.005-.007-.024-.012-.025-.013-.005-.007a30.717 30.717 0 0 1-.21-.157 3.206 3.206 0 0 1-.421-.4 14.37 14.37 0 0 1-.44-.516 3.97 3.97 0 0 1-.392-.576 6.985 6.985 0 0 1-.362-.78 5.549 5.549 0 0 1-.397-1.896c-.008-.31 0-.577.025-.798.024-.22.073-.47.146-.748.074-.278.18-.573.319-.884l.208-.466.012-.037.012-.037.008-.005.004-.007.005-.007.008-.005.007.005.005.007.005.007.007.005.008.005.004.008.005.007.008.005.012.024.012.025.007.005.005.007.33.368c.221.246.482.52.784.823.302.302.469.46.502.47a.36.36 0 0 1 .122.114c.049.06.212.205.49.434.277.23.64.495 1.088.798.45.303.947.601 1.493.896.547.294 1.134.56 1.763.797a21.16 21.16 0 0 0 1.321.467c.253.073.685.168 1.297.282.612.115 1.073.188 1.383.221.31.033.522.052.636.056l.172.005-.005-.036-.008-.037-.049-.307a5.787 5.787 0 0 1-.049-.86c0-.367.029-.707.086-1.018.057-.31.143-.626.257-.945.114-.319.226-.575.335-.768.111-.191.256-.41.436-.655.18-.246.412-.5.697-.761.286-.262.612-.495.98-.7.367-.204.705-.36 1.015-.466.31-.106.571-.176.783-.209.212-.032.318-.051.318-.056Z" fill="#fff"/></svg>